<svg xmlns="http://www.w3.org/2000/svg" xmlns:xlink="http://www.w3.org/1999/xlink" width="527.056030" height="215.060181" viewBox="0 0 527.056 215.06">
	<path d="M0 0.00502014L249.068 0.00502014L249.068 105L0 105L0 0.00502014Z" stroke-opacity="0" fill-opacity="0.000000" fill="#000000" transform="matrix(1 0 0 1 265.206 55.03)"/>
	<path d="M24.5114 82.4439L5.88435 28.1862L7.17739 27.7423L6.83793 29.0666L-0.939896 27.073L-0.939896 19.8409L26.2957 19.366L26.2957 27.1252L17.2593 28.9956L16.9822 27.6569L18.2832 27.2367L32.0185 69.7671L30.7175 70.1872L29.4249 69.7422L44.036 27.2974L45.3286 27.7423L45.0443 29.0796L35.8229 27.1191L35.8229 19.8418L62.1827 19.3651L62.1827 27.0763L54.3154 29.0677L53.98 27.7423L55.2671 28.203L35.5253 83.3671L24.8283 83.3671L24.5114 82.4439ZM27.0975 81.5561L25.8044 82L25.8044 80.6329L34.5626 80.6329L34.5626 82L33.2754 81.5394L52.9383 26.5958L60.4801 24.6868L60.8156 26.0121L59.4485 26.0121L59.4485 20.7572L60.8156 20.7572L60.8403 22.1241L37.2147 22.5513L37.19 21.1844L38.5571 21.1844L38.5571 26.0121L37.19 26.0121L37.4743 24.6748L47.1242 26.7264L30.6762 74.5076L15.213 26.627L24.6515 24.6733L24.9286 26.0121L23.5615 26.0121L23.5615 20.7572L24.9286 20.7572L24.9525 22.1241L0.45106 22.5513L0.427226 21.1844L1.79435 21.1844L1.79435 26.0121L0.427226 26.0121L0.766684 24.6878L8.23104 26.6011L27.0975 81.5561ZM25.8044 82L7.17739 27.7423L0.427226 26.0121L0.427226 21.1844L24.9286 20.7572L24.9286 26.0121L16.9822 27.6569L30.7175 70.1872L45.3286 27.7423L37.19 26.0121L37.19 21.1844L60.8156 20.7572L60.8156 26.0121L53.98 27.7423L34.5626 82L25.8044 82ZM76.1065 13.708Q83.1771 13.708 83.1771 21.633Q83.1771 25.0191 80.6996 26.9248Q78.4073 28.6822 75.7647 28.6822Q72.7942 28.6822 70.8928 26.6178Q69.0573 24.5962 69.0573 21.1844Q69.0573 17.7291 71.0876 15.7255Q73.105 13.708 76.1065 13.708ZM76.1065 16.4422Q74.2376 16.4422 73.0081 17.6716Q71.7915 18.8722 71.7915 21.1844Q71.7915 23.5402 72.9039 24.7655Q73.9931 25.948 75.7647 25.948Q77.4798 25.948 79.0325 24.7576Q80.4429 23.6727 80.4429 21.633Q80.4429 16.4422 76.1065 16.4422ZM82.3013 35.6247L82.3013 74.9935L80.9342 74.9935L81.369 73.6974L88.8592 76.2104L88.8592 83.3671L63.3752 83.3671L63.3752 76.1726L71.788 73.6826L72.176 74.9935L70.8089 74.9935L70.8089 42.6312L72.176 42.6312L71.8625 43.9618L63.3752 41.962L63.3752 34.7435L82.3013 34.2191L82.3013 35.6247ZM79.567 35.6247L80.9342 35.6247L80.972 36.9912L64.7802 37.4398L64.7423 36.0732L66.1094 36.0732L66.1094 40.8795L64.7423 40.8795L65.0559 39.5489L73.5432 41.5487L73.5432 76.0146L65.1303 78.5046L64.7423 77.1937L66.1094 77.1937L66.1094 82L64.7423 82L64.7423 80.6329L87.4921 80.6329L87.4921 82L86.125 82L86.125 77.1937L87.4921 77.1937L87.0572 78.4898L79.567 75.9768L79.567 35.6247ZM76.1065 15.0751Q81.81 15.0751 81.81 21.633Q81.81 24.3459 79.8661 25.8412Q77.9436 27.3151 75.7647 27.3151Q73.3936 27.3151 71.8983 25.6917Q70.4244 24.0682 70.4244 21.1844Q70.4244 18.3007 72.0479 16.6986Q73.6713 15.0751 76.1065 15.0751ZM80.9342 35.6247L80.9342 74.9935L87.4921 77.1937L87.4921 82L64.7423 82L64.7423 77.1937L72.176 74.9935L72.176 42.6312L64.7423 40.8795L64.7423 36.0732L80.9342 35.6247ZM92.6825 59.5066Q92.6825 53.6783 94.3608 48.8669Q96.0795 44.0048 99.2385 40.5731Q102.426 37.1121 106.752 35.2453Q111.093 33.3817 116.265 33.3817Q126.692 33.3817 132.526 40.066Q138.289 46.6684 138.289 58.2035Q138.289 63.8621 136.631 68.589Q134.964 73.341 131.954 76.827Q128.913 80.3251 124.559 82.2853Q120.234 84.2429 114.962 84.2429Q104.387 84.2429 98.5124 77.8635Q92.6824 71.5098 92.6825 59.5066ZM95.4167 59.5066Q95.4167 70.4454 100.524 76.0113Q105.586 81.5087 114.962 81.5087Q119.644 81.5087 123.437 79.7922Q127.243 78.0783 129.884 75.0398Q132.556 71.9465 134.051 67.6841Q135.555 63.3965 135.555 58.2035Q135.555 47.6938 130.466 41.864Q125.449 36.116 116.265 36.116Q111.655 36.116 107.835 37.7557Q104.044 39.3921 101.25 42.4249Q98.4707 45.4443 96.9425 49.7675Q95.4167 54.1415 95.4167 59.5066ZM115.924 43.1225Q104.602 43.1225 104.602 58.823Q104.602 74.5022 115.475 74.5022Q121.133 74.5022 123.654 70.7494Q126.369 66.7153 126.369 58.3744Q126.369 43.1225 115.924 43.1225ZM115.924 40.3882Q129.103 40.3882 129.103 58.3744Q129.103 67.5498 125.923 72.2738Q122.591 77.2364 115.475 77.2364Q101.868 77.2364 101.868 58.823Q101.868 40.3882 115.924 40.3882ZM94.0496 59.5066Q94.0496 53.9099 95.6517 49.3172Q97.2751 44.7246 100.244 41.499Q103.235 38.2521 107.294 36.5005Q111.374 34.7488 116.265 34.7488Q126.07 34.7488 131.496 40.965Q136.922 47.1811 136.922 58.2035Q136.922 63.6293 135.341 68.1365Q133.76 72.6438 130.919 75.9334Q128.078 79.2017 123.998 81.0387Q119.939 82.8758 114.962 82.8758Q104.987 82.8758 99.5181 76.9374Q94.0496 70.9776 94.0496 59.5066ZM115.924 41.7553Q103.235 41.7553 103.235 58.823Q103.235 75.8693 115.475 75.8693Q121.862 75.8693 124.788 71.5116Q127.736 67.1325 127.736 58.3744Q127.736 41.7553 115.924 41.7553ZM160.321 14.6265L160.321 74.9935L158.954 74.9935L159.287 73.6676L169.079 76.1276L169.079 83.3671L141.224 83.3671L141.224 76.1718L149.659 73.6823L150.046 74.9935L148.679 74.9935L148.679 21.633L150.046 21.633L149.734 22.9639L141.224 20.9645L141.224 13.7449L160.321 13.2214L160.321 14.6265ZM157.587 14.6265L158.954 14.6265L158.991 15.9931L142.629 16.4417L142.591 15.0751L143.958 15.0751L143.958 19.8814L142.591 19.8814L142.904 18.5505L151.413 20.5499L151.413 76.0154L142.978 78.5049L142.591 77.1937L143.958 77.1937L143.958 82L142.591 82L142.591 80.6329L167.712 80.6329L167.712 82L166.345 82L166.345 77.1937L167.712 77.1937L167.379 78.5196L157.587 76.0597L157.587 14.6265ZM158.954 14.6265L158.954 74.9935L167.712 77.1937L167.712 82L142.591 82L142.591 77.1937L150.046 74.9935L150.046 21.633L142.591 19.8814L142.591 15.0751L158.954 14.6265ZM211.025 61.3223L180.841 61.4931L180.834 60.126L182.201 60.126Q182.201 66.8211 185.359 70.7392Q188.407 74.5022 193.522 74.5022Q195.324 74.5022 197.128 74.1815Q198.965 73.8549 200.591 73.3468Q202.215 72.8392 203.523 72.2356Q204.842 71.616 205.727 71.046L208.605 69.1856L213.11 75.8959L212.126 76.6813Q209.064 79.1265 206.461 80.5506Q203.868 81.959 200.372 83.0874Q196.792 84.2429 192.646 84.2429Q181.698 84.2429 175.949 77.5043Q170.281 70.8621 170.281 59.5066Q170.281 53.853 171.914 49.0876Q173.583 44.2831 176.598 40.8157Q179.651 37.3071 183.843 35.3474Q188.049 33.3817 193.074 33.3817Q212.833 33.3817 212.833 55.3198L212.833 55.3858L212.259 61.3153L211.025 61.3223ZM211.009 58.5881L211.017 59.9552L209.656 59.8235L210.105 55.1881L211.466 55.3198L210.099 55.3198Q210.099 36.116 193.074 36.116Q188.656 36.116 185.001 37.8244Q181.333 39.5389 178.661 42.6095Q175.993 45.6787 174.501 49.9741Q173.015 54.3086 173.015 59.5066Q173.015 69.8541 178.029 75.7296Q182.96 81.5087 192.646 81.5087Q196.362 81.5087 199.532 80.4854Q202.786 79.435 205.149 78.1518Q207.544 76.8417 210.42 74.5447L211.273 75.613L210.138 76.375L207.084 71.8251L208.219 71.063L208.961 72.2112L207.208 73.3443Q206.17 74.0133 204.669 74.7181Q203.2 75.3961 201.406 75.9566Q199.615 76.5166 197.606 76.8736Q195.565 77.2364 193.522 77.2364Q187.103 77.2364 183.23 72.455Q179.466 67.7858 179.466 60.126L179.466 58.7666L211.009 58.5881ZM181.175 52.201L202.173 52.201L202.173 53.5681L200.806 53.5681Q200.806 48.6539 198.763 45.6935Q196.9 42.9516 192.561 42.9516Q188.181 42.9516 185.62 45.8625Q182.948 48.8806 182.538 53.6844L181.175 53.5681L181.175 52.201ZM181.175 54.9353L179.687 54.9353L179.813 53.4519Q180.3 47.7459 183.567 44.0565Q186.944 40.2173 192.561 40.2173Q198.347 40.2173 201.013 44.1401Q203.541 47.8018 203.541 53.5681L203.541 54.9353L181.175 54.9353ZM211.017 59.9552L180.834 60.126Q180.834 67.3034 184.294 71.5971Q187.755 75.8693 193.522 75.8693Q195.445 75.8693 197.367 75.5275Q199.29 75.1858 200.999 74.6517Q202.708 74.1177 204.096 73.4768Q205.506 72.8147 206.467 72.1952L208.219 71.063L211.273 75.613Q208.304 77.9841 205.805 79.3512Q203.327 80.697 199.952 81.7864Q196.577 82.8758 192.646 82.8758Q182.329 82.8758 176.989 76.617Q171.648 70.3581 171.648 59.5066Q171.648 54.0808 173.208 49.5308Q174.788 44.9809 177.629 41.7126Q180.492 38.423 184.422 36.5859Q188.353 34.7488 193.074 34.7488Q211.466 34.7488 211.466 55.3198L211.017 59.9552ZM181.175 53.5681L202.173 53.5681Q202.173 48.2278 199.888 44.9168Q197.624 41.5844 192.561 41.5844Q187.562 41.5844 184.593 44.9595Q181.624 48.3133 181.175 53.5681ZM235.125 23.2992L235.125 36.0732L233.758 36.0732L233.758 34.7061L247.814 34.7061L247.814 43.9983L233.758 43.9983L233.758 42.6312L235.125 42.6312L235.125 70.7212Q235.125 74.6731 238.137 74.6731Q240.589 74.6731 244.3 72.6597L245.531 71.9917L249.069 78.9097L248.132 79.5984Q241.811 84.2429 235.083 84.2429Q230.034 84.2429 226.832 80.8941Q223.654 77.5713 223.654 70.1872L223.654 42.6312L225.021 42.6312L225.021 43.9983L214.896 43.9983L214.896 35.7118L224.885 34.7129L225.021 36.0732L223.654 36.0732L223.654 23.9306L235.125 21.6308L235.125 23.2992ZM232.391 23.2992L233.758 23.2992L234.027 24.6396L225.29 26.3913L225.021 25.0508L226.389 25.0508L226.389 37.3105L216.399 38.3094L216.263 36.9491L217.63 36.9491L217.63 42.6312L216.263 42.6312L216.263 41.264L226.389 41.264L226.389 70.1872Q226.389 76.4744 228.808 79.0045Q231.202 81.5087 235.083 81.5087Q240.915 81.5087 246.513 77.3951L247.323 78.4967L246.105 79.1193L243.734 74.4839L244.952 73.8614L245.603 75.063Q241.283 77.4073 238.137 77.4073Q232.391 77.4073 232.391 70.7212L232.391 41.264L246.447 41.264L246.447 42.6312L245.08 42.6312L245.08 36.0732L246.447 36.0732L246.447 37.4404L232.391 37.4404L232.391 23.2992ZM233.758 23.2992L233.758 36.0732L246.447 36.0732L246.447 42.6312L233.758 42.6312L233.758 70.7212Q233.758 76.0402 238.137 76.0402Q240.936 76.0402 244.952 73.8614L247.323 78.4967Q241.363 82.8758 235.083 82.8758Q230.618 82.8758 227.82 79.9493Q225.021 77.0228 225.021 70.1872L225.021 42.6312L216.263 42.6312L216.263 36.9491L225.021 36.0732L225.021 25.0508L233.758 23.2992Z" fill="#9170A1" fill-opacity="1.000000" transform="matrix(1 0 0 1 265.206 55.03)"/>
	<path d="M153.776 111.207C171.101 105.647 187.159 84.2375 174.359 59.5179C160.293 32.3417 146.2 37.6684 135.055 41.2367C133.348 41.7797 162.103 29.6008 122.462 46.1754C123.031 44.081 125.876 44.7533 122.462 46.1754C123.522 43.8741 118.403 47.0804 118.868 44.4947C121.816 27.5581 108.344 3.53658 90.5534 0.537119C66.6865 -3.47078 54.0936 15.7154 51.1199 32.652C50.1373 38.3665 54.0419 45.6324 56.1105 50.6746C55.2572 51.2435 54.4556 51.8382 53.6282 52.4588C52.8524 51.8382 52.0508 51.2435 51.1975 50.7005C36.3033 40.9781 15.953 44.5981 5.71323 58.768C-4.47484 72.9379 -0.673707 92.2792 14.2205 102.002C21.047 106.475 19.1335 109.138 26.7617 108.233C27.072 109.087 28.8045 113.405 29.1665 114.232C20.9436 117.671 20.6592 118.421 17.6338 127.161C11.9967 143.477 23.3484 162.353 40.5181 167.705C57.6879 173.058 76.1764 164.189 81.8134 147.873C82.6926 145.313 81.6324 150.432 81.8134 147.873C82.5375 147.898 84.4768 159.095 83.7528 159.095C81.1152 159.095 88.1486 172.282 90.812 172.282C102.5 181.591 104.517 189.632 119.644 187.46C138.96 184.694 149.639 173.006 154.009 156.354C157.862 141.693 147.777 118.886 133.943 112.681C134.254 112.06 135.934 112.81 136.193 112.189C141.597 113.198 148.191 112.991 153.776 111.207L153.776 111.207Z" fill="#814C94" fill-opacity="1.000000" stroke-opacity="0" transform="matrix(1 0 0 1 29.8201 18.8813)"/>
	<path d="M153.776 111.207C171.101 105.647 187.159 84.2375 174.359 59.5179C160.293 32.3417 146.2 37.6684 135.055 41.2367C133.348 41.7797 162.103 29.6008 122.462 46.1754C123.031 44.081 125.876 44.7533 122.462 46.1754C123.522 43.8741 118.403 47.0804 118.868 44.4947C121.816 27.5581 108.344 3.53658 90.5534 0.537119C66.6865 -3.47078 54.0936 15.7154 51.1199 32.652C50.1373 38.3665 54.0419 45.6324 56.1105 50.6746C55.2572 51.2435 54.4556 51.8382 53.6282 52.4588C52.8524 51.8382 52.0508 51.2435 51.1975 50.7005C36.3033 40.9781 15.953 44.5981 5.71323 58.768C-4.47484 72.9379 -0.673707 92.2792 14.2205 102.002C21.047 106.475 19.1335 109.138 26.7617 108.233C27.072 109.087 28.8045 113.405 29.1665 114.232C20.9436 117.671 20.6592 118.421 17.6338 127.161C11.9967 143.477 23.3484 162.353 40.5181 167.705C57.6879 173.058 76.1764 164.189 81.8134 147.873C82.6926 145.313 81.6324 150.432 81.8134 147.873C82.5375 147.898 84.4768 159.095 83.7528 159.095C81.1152 159.095 88.1486 172.282 90.812 172.282C102.5 181.591 104.517 189.632 119.644 187.46C138.96 184.694 149.639 173.006 154.009 156.354C157.862 141.693 147.777 118.886 133.943 112.681C134.254 112.06 135.934 112.81 136.193 112.189C141.597 113.198 148.191 112.991 153.776 111.207L153.776 111.207Z" stroke="#000000" stroke-opacity="0.000000" stroke-width="1" stroke-dasharray="0 0" fill-opacity="0" transform="matrix(1 0 0 1 29.8201 18.8813)"/>
	<path d="M137.434 200.416C134.228 200.416 130.996 200.028 127.815 199.226C112.378 195.374 101.026 182.755 98.4921 167.473C98.2335 168.56 97.9491 169.646 97.5871 170.706C90.7864 191.392 68.4451 202.665 47.7587 195.865C37.7516 192.581 29.6063 185.574 24.8484 176.162C20.0906 166.749 19.289 156.07 22.5988 146.038C25.8569 136.16 32.942 127.938 42.225 123.231C33.304 123.878 24.4864 121.499 17.1169 116.457C-0.802746 104.149 -5.40548 79.5325 6.90295 61.5874C19.2114 43.6424 43.8024 39.0656 61.7479 51.3737C62.3167 51.7616 62.8598 52.1495 63.4028 52.589C63.5321 52.4856 63.6872 52.3822 63.8165 52.2787C61.6703 46.073 61.1014 39.4276 62.1616 32.9891C65.73 11.5275 86.1061 -3.03025 107.568 0.538077C117.963 2.27052 127.065 7.93329 133.194 16.4921C139.322 25.0509 141.753 35.4973 140.02 45.9178C139.581 48.5294 138.857 51.1669 137.822 53.7785C138.081 53.9853 138.314 54.1922 138.52 54.399L138.546 54.3473L138.908 54.6318C141.83 52.6666 145.088 51.0634 148.657 49.874C158.741 46.4608 169.576 47.1848 179.143 51.9426C188.685 56.6745 195.822 64.8454 199.235 74.9557C202.648 85.0659 201.898 95.8743 197.166 105.442C192.434 114.983 184.263 122.12 174.153 125.533C169.007 127.265 163.551 127.938 158.147 127.498C172.524 136.419 179.79 153.847 175.627 170.576C173.067 180.79 166.706 189.426 157.655 194.856C151.475 198.477 144.494 200.39 137.434 200.416L137.434 200.416L137.434 200.416ZM95.5443 158.708L98.4404 158.863C98.9317 158.889 99.423 158.941 99.9143 158.941L101.931 158.941L101.983 160.957C101.983 177.248 112.998 191.392 128.798 195.348C137.977 197.649 147.519 196.227 155.638 191.34C163.758 186.453 169.498 178.721 171.774 169.542C175.859 153.174 167.766 136.108 152.535 128.92L150.699 128.067L151.967 125.455C152.173 125.016 152.406 124.576 152.587 124.136L153.208 122.637L154.811 122.947C160.836 124.085 167.119 123.671 172.912 121.706C181.988 118.655 189.357 112.216 193.624 103.632C197.89 95.0469 198.537 85.2987 195.486 76.2227C192.434 67.1468 185.996 59.7774 177.411 55.5109C168.826 51.2445 159.077 50.598 150.001 53.6492C146.304 54.8904 142.968 56.5969 140.098 58.7172L138.882 59.6222L137.098 58.2518C136.762 57.9932 136.4 57.7088 136.09 57.4244L136.064 57.4502C135.986 57.3985 135.624 57.1141 134.202 56.0022L132.961 55.0455L133.581 53.6233C134.771 50.8566 135.624 48.064 136.09 45.2972C137.641 35.9627 135.469 26.5765 129.961 18.871C124.454 11.1655 116.282 6.07156 106.922 4.52012C87.6317 1.26208 69.3501 14.3459 66.1178 33.6356C65.0835 39.8672 65.7817 46.3315 68.0831 52.2787L68.6519 53.7526L67.359 54.6576C66.4281 55.3041 65.5231 56.0022 64.6181 56.7262L63.351 57.7347L62.1099 56.7004C61.2824 56.0022 60.4032 55.3299 59.4982 54.7093C51.6891 49.3569 42.2509 47.3658 32.9678 49.0983C23.659 50.8307 15.5912 56.0798 10.2386 63.8887C-0.854469 79.972 3.28282 102.08 19.3924 113.147C26.4775 118.008 35.1141 120.103 43.7248 119.068L45.328 118.862L45.8451 120.387C46.2072 121.447 46.5433 122.404 46.9312 123.335L47.6811 125.145L45.871 125.921C36.6138 129.98 29.5287 137.763 26.374 147.279C23.4262 156.277 24.1503 165.87 28.4168 174.326C32.6834 182.781 39.9754 189.064 48.974 192.012C67.54 198.115 87.6059 187.978 93.7342 169.413C94.6393 166.646 95.1823 163.776 95.3892 160.647L95.5443 158.708L95.5443 158.708L95.5443 158.708Z" fill="#5D416B" fill-opacity="1.000000" stroke-opacity="0" transform="matrix(1 0 0 1 10.6072 7.32214)"/>
	<path d="M137.434 200.416C134.228 200.416 130.996 200.028 127.815 199.226C112.378 195.374 101.026 182.755 98.4921 167.473C98.2335 168.56 97.9491 169.646 97.5871 170.706C90.7864 191.392 68.4451 202.665 47.7587 195.865C37.7516 192.581 29.6063 185.574 24.8484 176.162C20.0906 166.749 19.289 156.07 22.5988 146.038C25.8569 136.16 32.942 127.938 42.225 123.231C33.304 123.878 24.4864 121.499 17.1169 116.457C-0.802746 104.149 -5.40548 79.5325 6.90295 61.5874C19.2114 43.6424 43.8024 39.0656 61.7479 51.3737C62.3167 51.7616 62.8598 52.1495 63.4028 52.589C63.5321 52.4856 63.6872 52.3822 63.8165 52.2787C61.6703 46.073 61.1014 39.4276 62.1616 32.9891C65.73 11.5275 86.1061 -3.03025 107.568 0.538077C117.963 2.27052 127.065 7.93329 133.194 16.4921C139.322 25.0509 141.753 35.4973 140.02 45.9178C139.581 48.5294 138.857 51.1669 137.822 53.7785C138.081 53.9853 138.314 54.1922 138.52 54.399L138.546 54.3473L138.908 54.6318C141.83 52.6666 145.088 51.0634 148.657 49.874C158.741 46.4608 169.576 47.1848 179.143 51.9426C188.685 56.6745 195.822 64.8454 199.235 74.9557C202.648 85.0659 201.898 95.8743 197.166 105.442C192.434 114.983 184.263 122.12 174.153 125.533C169.007 127.265 163.551 127.938 158.147 127.498C172.524 136.419 179.79 153.847 175.627 170.576C173.067 180.79 166.706 189.426 157.655 194.856C151.475 198.477 144.494 200.39 137.434 200.416L137.434 200.416L137.434 200.416ZM95.5443 158.708L98.4404 158.863C98.9317 158.889 99.423 158.941 99.9143 158.941L101.931 158.941L101.983 160.957C101.983 177.248 112.998 191.392 128.798 195.348C137.977 197.649 147.519 196.227 155.638 191.34C163.758 186.453 169.498 178.721 171.774 169.542C175.859 153.174 167.766 136.108 152.535 128.92L150.699 128.067L151.967 125.455C152.173 125.016 152.406 124.576 152.587 124.136L153.208 122.637L154.811 122.947C160.836 124.085 167.119 123.671 172.912 121.706C181.988 118.655 189.357 112.216 193.624 103.632C197.89 95.0469 198.537 85.2987 195.486 76.2227C192.434 67.1468 185.996 59.7774 177.411 55.5109C168.826 51.2445 159.077 50.598 150.001 53.6492C146.304 54.8904 142.968 56.5969 140.098 58.7172L138.882 59.6222L137.098 58.2518C136.762 57.9932 136.4 57.7088 136.09 57.4244L136.064 57.4502C135.986 57.3985 135.624 57.1141 134.202 56.0022L132.961 55.0455L133.581 53.6233C134.771 50.8566 135.624 48.064 136.09 45.2972C137.641 35.9627 135.469 26.5765 129.961 18.871C124.454 11.1655 116.282 6.07156 106.922 4.52012C87.6317 1.26208 69.3501 14.3459 66.1178 33.6356C65.0835 39.8672 65.7817 46.3315 68.0831 52.2787L68.6519 53.7526L67.359 54.6576C66.4281 55.3041 65.5231 56.0022 64.6181 56.7262L63.351 57.7347L62.1099 56.7004C61.2824 56.0022 60.4032 55.3299 59.4982 54.7093C51.6891 49.3569 42.2509 47.3658 32.9678 49.0983C23.659 50.8307 15.5912 56.0798 10.2386 63.8887C-0.854469 79.972 3.28282 102.08 19.3924 113.147C26.4775 118.008 35.1141 120.103 43.7248 119.068L45.328 118.862L45.8451 120.387C46.2072 121.447 46.5433 122.404 46.9312 123.335L47.6811 125.145L45.871 125.921C36.6138 129.98 29.5287 137.763 26.374 147.279C23.4262 156.277 24.1503 165.87 28.4168 174.326C32.6834 182.781 39.9754 189.064 48.974 192.012C67.54 198.115 87.6059 187.978 93.7342 169.413C94.6393 166.646 95.1823 163.776 95.3892 160.647L95.5443 158.708L95.5443 158.708L95.5443 158.708Z" stroke="#000000" stroke-opacity="0.000000" stroke-width="1" stroke-dasharray="0 0" fill-opacity="0" transform="matrix(1 0 0 1 10.6072 7.32214)"/>
	<path d="M47.8927 69.9476C46.755 69.9476 45.6172 69.8183 44.4795 69.5339C39.4371 68.2669 35.6101 64.3883 34.369 59.5271C33.2054 63.0437 30.723 65.888 27.4132 67.5687C24.0775 69.2495 20.3022 69.5339 16.7596 68.3703C13.2171 67.2067 10.321 64.7244 8.64022 61.4147C6.95944 58.0791 6.675 54.3039 7.83862 50.7614C8.84708 47.6585 10.9416 45.0211 13.6825 43.3145C10.9674 43.2628 8.30406 42.4353 6.05441 40.8839C-0.280809 36.5398 -1.90987 27.8259 2.43429 21.465C6.77844 15.1299 15.4926 13.475 21.8537 17.8449C21.8795 17.8449 21.8795 17.8708 21.9054 17.8708C21.3107 15.8539 21.1814 13.7336 21.5175 11.6909C22.1381 8.01912 24.1292 4.78695 27.1804 2.61493C30.2058 0.442905 33.9035 -0.410389 37.5754 0.184334C41.2472 0.804914 44.4795 2.79593 46.6515 5.8471C48.8236 8.87242 49.6769 12.57 49.0822 16.2676C48.9529 17.1209 48.7202 17.9742 48.384 18.8275L48.4099 18.8534C49.3925 18.2069 50.4785 17.6898 51.668 17.2761C55.2623 16.0608 59.0634 16.3193 62.4508 18.0001C65.8382 19.6808 68.3464 22.5768 69.5617 26.1452C70.7771 29.7135 70.4926 33.5404 68.8377 36.9277C67.157 40.315 64.2608 42.8232 60.6924 44.0385C59.2444 44.5298 57.7188 44.7884 56.1931 44.7884L56.1414 44.7884C60.6149 48.0981 62.7869 53.8643 61.4165 59.4236C60.5114 63.0437 58.2618 66.0949 55.0554 68.0083C52.8575 69.2753 50.4009 69.9476 47.8927 69.9476L47.8927 69.9476ZM33.1019 54.8986L34.4724 54.9503C34.6275 54.9503 34.7568 54.9762 34.912 54.9762L35.9205 54.9762L35.9463 55.9846C35.9463 61.4922 39.6699 66.25 44.9966 67.5946C48.0996 68.3703 51.306 67.879 54.047 66.25C56.7879 64.5951 58.7273 61.9835 59.503 58.8806C60.8735 53.3471 58.1584 47.6068 53.0126 45.1762L52.0817 44.7366L52.5472 43.8316C52.7282 43.4955 52.8058 43.3145 52.8833 43.1335L53.1936 42.3836L53.9952 42.5387C56.038 42.9266 58.1584 42.7715 60.0977 42.125C63.1748 41.0907 65.6572 38.9187 67.0794 36.0227C68.5274 33.1266 68.7343 29.8428 67.7 26.7657C66.6657 23.6887 64.4936 21.2064 61.5975 19.7842C58.7014 18.3362 55.4174 18.1293 52.3403 19.1636C51.0733 19.6032 49.9614 20.1721 49.0046 20.8702L48.384 21.3098L45.9792 19.4222L46.2895 18.6982C46.7033 17.7673 46.9877 16.8106 47.1429 15.8798C47.66 12.7251 46.936 9.54469 45.0742 6.95895C43.2124 4.37321 40.4456 2.64077 37.2909 2.12362C30.8006 1.03761 24.6205 5.45923 23.5345 11.9494C23.1983 14.0439 23.4052 16.2159 24.2068 18.2328L24.4912 18.9568L23.8448 19.3964C23.5345 19.6291 23.1983 19.8618 22.9139 20.0945L22.2674 20.5858L21.6468 20.0687C21.3624 19.8359 21.0521 19.6032 20.7677 19.3964C15.3116 15.6729 7.8645 17.0692 4.14095 22.4993C0.417387 27.9293 1.81372 35.4021 7.24391 39.1256C9.6487 40.7546 12.5707 41.4786 15.4668 41.1166L16.2684 41.0132L16.5269 41.7889C16.6562 42.125 16.7597 42.4612 16.889 42.7973L17.251 43.7023L16.3459 44.0902C13.2171 45.4348 10.8382 48.0722 9.778 51.3044C8.76953 54.3297 9.02812 57.5878 10.4503 60.4321C11.8984 63.2764 14.3549 65.3967 17.4061 66.4051C20.4315 67.4136 23.6896 67.155 26.534 65.707C29.3784 64.259 31.4987 61.8025 32.5072 58.7772C32.8175 57.8722 32.9985 56.8637 33.0761 55.8294L33.102 54.8986L33.1019 54.8986L33.1019 54.8986Z" fill="#5D416B" fill-opacity="1.000000" stroke-opacity="0" transform="matrix(1 0 0 1 76.1008 72.8624)"/>
	<path d="M47.8927 69.9476C46.755 69.9476 45.6172 69.8183 44.4795 69.5339C39.4371 68.2669 35.6101 64.3883 34.369 59.5271C33.2054 63.0437 30.723 65.888 27.4132 67.5687C24.0775 69.2495 20.3022 69.5339 16.7596 68.3703C13.2171 67.2067 10.321 64.7244 8.64022 61.4147C6.95944 58.0791 6.675 54.3039 7.83862 50.7614C8.84708 47.6585 10.9416 45.0211 13.6825 43.3145C10.9674 43.2628 8.30406 42.4353 6.05441 40.8839C-0.280809 36.5398 -1.90987 27.8259 2.43429 21.465C6.77844 15.1299 15.4926 13.475 21.8537 17.8449C21.8795 17.8449 21.8795 17.8708 21.9054 17.8708C21.3107 15.8539 21.1814 13.7336 21.5175 11.6909C22.1381 8.01912 24.1292 4.78695 27.1804 2.61493C30.2058 0.442905 33.9035 -0.410389 37.5754 0.184334C41.2472 0.804914 44.4795 2.79593 46.6515 5.8471C48.8236 8.87242 49.6769 12.57 49.0822 16.2676C48.9529 17.1209 48.7202 17.9742 48.384 18.8275L48.4099 18.8534C49.3925 18.2069 50.4785 17.6898 51.668 17.2761C55.2623 16.0608 59.0634 16.3193 62.4508 18.0001C65.8382 19.6808 68.3464 22.5768 69.5617 26.1452C70.7771 29.7135 70.4926 33.5404 68.8377 36.9277C67.157 40.315 64.2608 42.8232 60.6924 44.0385C59.2444 44.5298 57.7188 44.7884 56.1931 44.7884L56.1414 44.7884C60.6149 48.0981 62.7869 53.8643 61.4165 59.4236C60.5114 63.0437 58.2618 66.0949 55.0554 68.0083C52.8575 69.2753 50.4009 69.9476 47.8927 69.9476L47.8927 69.9476ZM33.1019 54.8986L34.4724 54.9503C34.6275 54.9503 34.7568 54.9762 34.912 54.9762L35.9205 54.9762L35.9463 55.9846C35.9463 61.4922 39.6699 66.25 44.9966 67.5946C48.0996 68.3703 51.306 67.879 54.047 66.25C56.7879 64.5951 58.7273 61.9835 59.503 58.8806C60.8735 53.3471 58.1584 47.6068 53.0126 45.1762L52.0817 44.7366L52.5472 43.8316C52.7282 43.4955 52.8058 43.3145 52.8833 43.1335L53.1936 42.3836L53.9952 42.5387C56.038 42.9266 58.1584 42.7715 60.0977 42.125C63.1748 41.0907 65.6572 38.9187 67.0794 36.0227C68.5274 33.1266 68.7343 29.8428 67.7 26.7657C66.6657 23.6887 64.4936 21.2064 61.5975 19.7842C58.7014 18.3362 55.4174 18.1293 52.3403 19.1636C51.0733 19.6032 49.9614 20.1721 49.0046 20.8702L48.384 21.3098L45.9792 19.4222L46.2895 18.6982C46.7033 17.7673 46.9877 16.8106 47.1429 15.8798C47.66 12.7251 46.936 9.54469 45.0742 6.95895C43.2124 4.37321 40.4456 2.64077 37.2909 2.12362C30.8006 1.03761 24.6205 5.45923 23.5345 11.9494C23.1983 14.0439 23.4052 16.2159 24.2068 18.2328L24.4912 18.9568L23.8448 19.3964C23.5345 19.6291 23.1983 19.8618 22.9139 20.0945L22.2674 20.5858L21.6468 20.0687C21.3624 19.8359 21.0521 19.6032 20.7677 19.3964C15.3116 15.6729 7.8645 17.0692 4.14095 22.4993C0.417387 27.9293 1.81372 35.4021 7.24391 39.1256C9.6487 40.7546 12.5707 41.4786 15.4668 41.1166L16.2684 41.0132L16.5269 41.7889C16.6562 42.125 16.7597 42.4612 16.889 42.7973L17.251 43.7023L16.3459 44.0902C13.2171 45.4348 10.8382 48.0722 9.778 51.3044C8.76953 54.3297 9.02812 57.5878 10.4503 60.4321C11.8984 63.2764 14.3549 65.3967 17.4061 66.4051C20.4315 67.4136 23.6896 67.155 26.534 65.707C29.3784 64.259 31.4987 61.8025 32.5072 58.7772C32.8175 57.8722 32.9985 56.8637 33.0761 55.8294L33.102 54.8986L33.1019 54.8986L33.1019 54.8986Z" stroke="#000000" stroke-opacity="0.000000" stroke-width="1" stroke-dasharray="0 0" fill-opacity="0" transform="matrix(1 0 0 1 76.1008 72.8624)"/>
	<path d="M54.1378 38.6923C60.8351 35.7963 64.4035 28.608 62.2831 22.2988C60.1886 15.9895 53.2328 11.8265 46.9752 13.9468C45.7598 14.3605 43.7429 15.1621 42.7603 15.8861C41.907 15.2138 43.2257 17.5668 42.088 16.6618C42.4759 15.7827 42.7603 14.8518 42.9155 13.8692C44.0015 7.37903 39.6315 1.22497 33.1928 0.164815C26.7542 -0.921194 20.6775 3.47456 19.6174 9.96477C19.2553 12.1627 19.5398 14.283 20.2638 16.2223C19.9535 16.4291 19.6691 16.6618 19.3588 16.8946C19.0743 16.6618 18.7899 16.4291 18.4796 16.2223C13.1011 12.4988 5.75745 13.8951 2.05975 19.3252C-1.61209 24.7552 -0.241614 32.1504 5.111 35.8739C7.59338 37.5805 10.4636 38.2011 13.2304 37.8649C13.3597 38.1752 13.4631 38.5113 13.5924 38.8475C10.6188 40.1404 8.18811 42.6744 7.10207 46.0359C5.05929 52.2675 8.42083 59.0163 14.6268 61.059C20.8327 63.1017 24.5821 59.1456 28.8745 53.2242C29.4693 52.3968 29.6503 52.5778 29.702 51.5952L29.9606 51.5952L30.8656 55.7324C33.3221 61.5761 34.9253 62.0416 39.5798 63.774C45.7081 66.0236 52.5605 59.8437 54.1378 53.4569C55.5342 47.8459 52.7156 42.1831 47.725 39.8042C47.8285 39.5715 47.9578 39.3388 48.0612 39.1061C50.0523 39.4939 52.1985 39.5456 54.1378 38.6923L54.1378 38.6923L54.1378 38.6923Z" fill="#FFFFFF" fill-opacity="1.000000" stroke-opacity="0" transform="matrix(1 0 0 1 81.9056 77.7948)"/>
	<path d="M54.1378 38.6923C60.8351 35.7963 64.4035 28.608 62.2831 22.2988C60.1886 15.9895 53.2328 11.8265 46.9752 13.9468C45.7598 14.3605 43.7429 15.1621 42.7603 15.8861C41.907 15.2138 43.2257 17.5668 42.088 16.6618C42.4759 15.7827 42.7603 14.8518 42.9155 13.8692C44.0015 7.37903 39.6315 1.22497 33.1928 0.164815C26.7542 -0.921194 20.6775 3.47456 19.6174 9.96477C19.2553 12.1627 19.5398 14.283 20.2638 16.2223C19.9535 16.4291 19.6691 16.6618 19.3588 16.8946C19.0743 16.6618 18.7899 16.4291 18.4796 16.2223C13.1011 12.4988 5.75745 13.8951 2.05975 19.3252C-1.61209 24.7552 -0.241614 32.1504 5.111 35.8739C7.59338 37.5805 10.4636 38.2011 13.2304 37.8649C13.3597 38.1752 13.4631 38.5113 13.5924 38.8475C10.6188 40.1404 8.18811 42.6744 7.10207 46.0359C5.05929 52.2675 8.42083 59.0163 14.6268 61.059C20.8327 63.1017 24.5821 59.1456 28.8745 53.2242C29.4693 52.3968 29.6503 52.5778 29.702 51.5952L29.9606 51.5952L30.8656 55.7324C33.3221 61.5761 34.9253 62.0416 39.5798 63.774C45.7081 66.0236 52.5605 59.8437 54.1378 53.4569C55.5342 47.8459 52.7156 42.1831 47.725 39.8042C47.8285 39.5715 47.9578 39.3388 48.0612 39.1061C50.0523 39.4939 52.1985 39.5456 54.1378 38.6923L54.1378 38.6923L54.1378 38.6923Z" stroke="#000000" stroke-opacity="0.000000" stroke-width="1" stroke-dasharray="0 0" fill-opacity="0" transform="matrix(1 0 0 1 81.9056 77.7948)"/>
	<path d="M63.0936 0C63.2746 2.09445 63.4039 4.1889 63.4298 6.33506C63.7918 27.7967 56.655 47.6293 44.45 63.3765C62.5764 62.4198 76.8501 46.6726 76.5139 27.5899C76.3588 16.2902 71.1096 6.33508 63.0936 5.97286e-06L63.0936 0L63.0936 0ZM1.1946e-05 132.674C6.07665 135.7 13.0583 137.018 20.2986 136.088C39.6404 133.554 53.2934 115.841 50.7852 96.474C50.2422 92.3885 49.001 88.5616 47.2426 85.0709C38.2182 106.119 21.4363 123.34 0 132.674L1.1946e-05 132.674L1.1946e-05 132.674Z" fill="#814C94" fill-opacity="1.000000" stroke-opacity="0" transform="matrix(1 0 0 1 132.32 67.2288)"/>
	<path d="M63.0936 0C63.2746 2.09445 63.4039 4.1889 63.4298 6.33506C63.7918 27.7967 56.655 47.6293 44.45 63.3765C62.5764 62.4198 76.8501 46.6726 76.5139 27.5899C76.3588 16.2902 71.1096 6.33508 63.0936 5.97286e-06L63.0936 0L63.0936 0ZM1.1946e-05 132.674C6.07665 135.7 13.0583 137.018 20.2986 136.088C39.6404 133.554 53.2934 115.841 50.7852 96.474C50.2422 92.3885 49.001 88.5616 47.2426 85.0709C38.2182 106.119 21.4363 123.34 0 132.674L1.1946e-05 132.674L1.1946e-05 132.674Z" stroke="#000000" stroke-opacity="0.000000" stroke-width="1" stroke-dasharray="0 0" fill-opacity="0" transform="matrix(1 0 0 1 132.32 67.2288)"/>
</svg>
