<svg xmlns="http://www.w3.org/2000/svg" xmlns:xlink="http://www.w3.org/1999/xlink" width="537.311523" height="241.190002" viewBox="0 0 537.312 241.19">
	<path d="M75.2382 185.829C71.8864 185.829 68.3852 185.27 64.2213 184.071C57.7375 182.204 52.1373 178.342 46.5971 171.92C41.2642 165.739 36.4569 158.502 31.0096 148.455C30.0909 146.748 29.1862 145.034 28.2956 143.312L28.0827 142.904C28.4644 142.974 28.8461 143.031 29.2347 143.067C30.1986 143.153 31.1682 143.197 32.1163 143.197C35.8985 143.197 39.6025 142.504 43.1264 141.136C43.1944 141.11 43.2488 141.09 43.293 141.076C43.3201 141.123 43.3541 141.188 43.3949 141.271L44.2988 143.143C46.3683 147.433 48.5069 151.868 50.7995 156.146C52.8951 160.058 55.6148 163.296 58.8816 165.771C64.0898 169.716 69.9189 171.801 75.7388 171.801C80.6787 171.8 85.5369 170.328 90.1777 167.426C95.8787 163.862 100.891 159.339 105.505 153.601C105.516 153.588 105.526 153.576 105.534 153.564L105.572 153.587C113.395 158.431 119.763 161.418 126.22 163.274C130.067 164.379 133.233 164.894 136.187 164.894C138.17 164.894 140.095 164.65 141.908 164.172C149.699 162.118 154.625 157.426 156.545 150.225C157.913 145.091 156.287 140.223 154.946 137.007C154.048 134.856 152.841 132.405 150.698 130.546C149.991 129.931 149.134 129.227 148.146 128.675C138.091 123.059 128.027 117.46 117.955 111.876C116.887 111.297 115.999 110.513 115.29 109.526C118.402 106.351 120.443 102.68 121.403 98.5632C121.678 98.6289 121.954 98.6856 122.231 98.7434C123.133 98.9314 123.986 99.1081 124.644 99.4853C138.059 107.167 148.358 113.132 158.035 118.825C169.86 125.783 175.674 141.184 170.996 153.16C165.051 168.379 154.663 177.542 140.122 180.398C137.862 180.842 135.575 181.067 133.325 181.067C126.863 181.067 120.345 179.214 113.948 175.56C112.059 174.481 110.216 173.314 108.505 172.214C108.026 171.906 107.57 171.757 107.11 171.757C106.654 171.757 106.2 171.904 105.722 172.205L103.846 173.398C100.184 175.725 96.3976 178.132 92.6256 180.406C88.3699 182.976 84.3487 184.596 80.3309 185.36C78.648 185.675 76.9504 185.831 75.2382 185.829L75.2382 185.829L75.2382 185.829ZM177.461 130.308C175.821 125.814 172.933 121.805 168.531 117.885C169.541 116.412 170.558 114.944 171.581 113.48C173.82 110.268 176.135 106.947 178.256 103.567C181.196 98.8861 182.735 93.9836 182.834 88.9928C183.047 77.9589 178.399 69.6503 169.021 64.2993C163.443 61.1164 157.104 58.8894 149.644 57.4916L149.185 57.409L149.191 57.1892C149.46 50.0576 149.44 41.638 147.232 33.2546C145.67 27.3192 143.321 22.9513 139.839 19.5113C136.341 16.0564 130.835 13.8238 125.81 13.8238C123.154 13.8238 120.695 14.4219 118.504 15.6022C115.434 17.2537 112.751 19.5962 110.3 22.7622C107.779 26.0188 106.576 29.6311 106.618 33.8063C106.693 41.2574 106.69 48.8376 106.685 56.1686C106.683 59.7084 106.68 63.247 106.687 66.7868C106.69 68.0883 106.443 69.2686 105.968 70.245C105.455 70.1605 104.943 70.0737 104.431 69.9845C102.664 69.6787 100.996 69.3909 99.2656 69.3049C99.0139 69.2922 98.7621 69.2858 98.5101 69.2856C96.9616 69.2856 95.4211 69.5065 93.9316 69.7206L93.0787 69.8407C92.5078 68.4338 92.5372 66.9024 92.5689 65.2825L92.7513 56.0451C92.9348 46.8327 93.1183 37.619 93.261 28.4066C93.466 15.1695 103.682 2.89639 116.519 0.464418C118.695 0.0521054 120.935 0 122.644 0C123.585 0 124.525 0.018123 125.459 0.0373802C132.063 0.173308 137.622 1.41251 142.458 3.82523C155.592 10.3803 162.883 21.0348 164.13 35.4952C164.342 37.9407 164.219 40.4962 164.101 42.9678C164.058 43.8672 164.015 44.7666 163.985 45.6637C163.948 46.8984 164.395 47.706 165.439 48.2814C166.675 48.9656 167.916 49.6441 169.154 50.3226C173.038 52.4487 177.053 54.6462 180.896 56.966C186.657 60.4435 190.806 64.9846 193.228 70.4625C197.411 79.9253 197.778 89.1525 194.345 98.6686C191.716 105.959 188.126 113.292 183.371 121.091C181.878 123.537 180.28 125.987 178.734 128.356C178.31 129.004 177.885 129.655 177.461 130.308L177.461 130.308L177.461 130.308ZM32.2103 133.536C23.989 133.536 16.2615 130.373 11.0113 124.858C7.74793 121.432 5.60821 117.106 3.86041 113.322C-1.07149 102.644 -1.27878 91.8382 3.2442 81.2019C6.47248 73.6092 12.1542 67.5106 20.1332 63.0771C21.9389 62.0721 23.7728 61.1214 25.6349 60.2249C27.1131 59.5158 27.2535 58.3491 27.232 57.5347L27.1742 55.4878C27.0542 51.2152 26.9284 46.7953 26.916 42.4558C26.899 37.0595 27.6772 32.4742 29.2924 28.4383C31.0459 24.0569 33.9208 20.1784 38.6159 15.8605C43.5161 11.3545 49.6736 8.59741 57.9946 7.18603C63.8803 6.18696 70.2066 5.70102 77.3349 5.70102C81.2099 5.70102 85.469 5.84488 90.3544 6.14165C90.991 6.18016 91.6276 6.22208 92.2789 6.26512C89.2002 9.95329 87.1669 14.4559 85.9742 20.1966L81.373 19.7106C77.4651 19.3006 73.4235 18.8758 69.4001 18.8758C67.8902 18.8758 66.4867 18.9336 65.1116 19.0525C57.0386 19.7469 50.2898 23.213 45.0521 29.3535C41.4058 33.6273 39.5391 38.9285 39.3477 45.5561C39.1528 52.3219 40.4362 59.3822 43.2726 67.1413L43.2873 67.1833L43.2386 67.2093C35.4171 71.2588 29.7942 74.99 25.0062 79.308C20.3393 83.5183 17.3943 87.5747 15.7393 92.0738C13.7978 97.349 14.1309 102.846 16.7293 108.415C17.6674 110.432 19.0214 112.116 20.7913 113.464C24.953 116.661 29.7331 118.283 34.998 118.283C36.0605 118.283 37.1558 118.215 38.2569 118.085C40.0352 117.873 41.6675 117.113 42.7243 116.51C50.8313 111.889 59.0436 107.141 66.9851 102.552L72.6669 99.2689C73.5515 98.7581 74.4079 98.4432 75.3061 98.3027C76.4094 102.847 78.548 106.629 81.8159 109.812C81.2813 110.474 80.5835 111.033 79.6717 111.537L55.8051 124.713C52.604 126.48 49.404 128.246 46.2075 130.023C42.0673 132.32 37.2283 133.535 32.2137 133.535L32.2103 133.536L32.2103 133.536L32.2103 133.536Z" fill="#814C94" fill-opacity="1.000000" stroke-opacity="0" transform="matrix(1 0 0 1 22.5913 28.8701)"/>
	<path d="M75.2382 185.829C71.8864 185.829 68.3852 185.27 64.2213 184.071C57.7375 182.204 52.1373 178.342 46.5971 171.92C41.2642 165.739 36.4569 158.502 31.0096 148.455C30.0909 146.748 29.1862 145.034 28.2956 143.312L28.0827 142.904C28.4644 142.974 28.8461 143.031 29.2347 143.067C30.1986 143.153 31.1682 143.197 32.1163 143.197C35.8985 143.197 39.6025 142.504 43.1264 141.136C43.1944 141.11 43.2488 141.09 43.293 141.076C43.3201 141.123 43.3541 141.188 43.3949 141.271L44.2988 143.143C46.3683 147.433 48.5069 151.868 50.7995 156.146C52.8951 160.058 55.6148 163.296 58.8816 165.771C64.0898 169.716 69.9189 171.801 75.7388 171.801C80.6787 171.8 85.5369 170.328 90.1777 167.426C95.8787 163.862 100.891 159.339 105.505 153.601C105.516 153.588 105.526 153.576 105.534 153.564L105.572 153.587C113.395 158.431 119.763 161.418 126.22 163.274C130.067 164.379 133.233 164.894 136.187 164.894C138.17 164.894 140.095 164.65 141.908 164.172C149.699 162.118 154.625 157.426 156.545 150.225C157.913 145.091 156.287 140.223 154.946 137.007C154.048 134.856 152.841 132.405 150.698 130.546C149.991 129.931 149.134 129.227 148.146 128.675C138.091 123.059 128.027 117.46 117.955 111.876C116.887 111.297 115.999 110.513 115.29 109.526C118.402 106.351 120.443 102.68 121.403 98.5632C121.678 98.6289 121.954 98.6856 122.231 98.7434C123.133 98.9314 123.986 99.1081 124.644 99.4853C138.059 107.167 148.358 113.132 158.035 118.825C169.86 125.783 175.674 141.184 170.996 153.16C165.051 168.379 154.663 177.542 140.122 180.398C137.862 180.842 135.575 181.067 133.325 181.067C126.863 181.067 120.345 179.214 113.948 175.56C112.059 174.481 110.216 173.314 108.505 172.214C108.026 171.906 107.57 171.757 107.11 171.757C106.654 171.757 106.2 171.904 105.722 172.205L103.846 173.398C100.184 175.725 96.3976 178.132 92.6256 180.406C88.3699 182.976 84.3487 184.596 80.3309 185.36C78.648 185.675 76.9504 185.831 75.2382 185.829L75.2382 185.829L75.2382 185.829ZM177.461 130.308C175.821 125.814 172.933 121.805 168.531 117.885C169.541 116.412 170.558 114.944 171.581 113.48C173.82 110.268 176.135 106.947 178.256 103.567C181.196 98.8861 182.735 93.9836 182.834 88.9928C183.047 77.9589 178.399 69.6503 169.021 64.2993C163.443 61.1164 157.104 58.8894 149.644 57.4916L149.185 57.409L149.191 57.1892C149.46 50.0576 149.44 41.638 147.232 33.2546C145.67 27.3192 143.321 22.9513 139.839 19.5113C136.341 16.0564 130.835 13.8238 125.81 13.8238C123.154 13.8238 120.695 14.4219 118.504 15.6022C115.434 17.2537 112.751 19.5962 110.3 22.7622C107.779 26.0188 106.576 29.6311 106.618 33.8063C106.693 41.2574 106.69 48.8376 106.685 56.1686C106.683 59.7084 106.68 63.247 106.687 66.7868C106.69 68.0883 106.443 69.2686 105.968 70.245C105.455 70.1605 104.943 70.0737 104.431 69.9845C102.664 69.6787 100.996 69.3909 99.2656 69.3049C99.0139 69.2922 98.7621 69.2858 98.5101 69.2856C96.9616 69.2856 95.4211 69.5065 93.9316 69.7206L93.0787 69.8407C92.5078 68.4338 92.5372 66.9024 92.5689 65.2825L92.7513 56.0451C92.9348 46.8327 93.1183 37.619 93.261 28.4066C93.466 15.1695 103.682 2.89639 116.519 0.464418C118.695 0.0521054 120.935 0 122.644 0C123.585 0 124.525 0.018123 125.459 0.0373802C132.063 0.173308 137.622 1.41251 142.458 3.82523C155.592 10.3803 162.883 21.0348 164.13 35.4952C164.342 37.9407 164.219 40.4962 164.101 42.9678C164.058 43.8672 164.015 44.7666 163.985 45.6637C163.948 46.8984 164.395 47.706 165.439 48.2814C166.675 48.9656 167.916 49.6441 169.154 50.3226C173.038 52.4487 177.053 54.6462 180.896 56.966C186.657 60.4435 190.806 64.9846 193.228 70.4625C197.411 79.9253 197.778 89.1525 194.345 98.6686C191.716 105.959 188.126 113.292 183.371 121.091C181.878 123.537 180.28 125.987 178.734 128.356C178.31 129.004 177.885 129.655 177.461 130.308L177.461 130.308L177.461 130.308ZM32.2103 133.536C23.989 133.536 16.2615 130.373 11.0113 124.858C7.74793 121.432 5.60821 117.106 3.86041 113.322C-1.07149 102.644 -1.27878 91.8382 3.2442 81.2019C6.47248 73.6092 12.1542 67.5106 20.1332 63.0771C21.9389 62.0721 23.7728 61.1214 25.6349 60.2249C27.1131 59.5158 27.2535 58.3491 27.232 57.5347L27.1742 55.4878C27.0542 51.2152 26.9284 46.7953 26.916 42.4558C26.899 37.0595 27.6772 32.4742 29.2924 28.4383C31.0459 24.0569 33.9208 20.1784 38.6159 15.8605C43.5161 11.3545 49.6736 8.59741 57.9946 7.18603C63.8803 6.18696 70.2066 5.70102 77.3349 5.70102C81.2099 5.70102 85.469 5.84488 90.3544 6.14165C90.991 6.18016 91.6276 6.22208 92.2789 6.26512C89.2002 9.95329 87.1669 14.4559 85.9742 20.1966L81.373 19.7106C77.4651 19.3006 73.4235 18.8758 69.4001 18.8758C67.8902 18.8758 66.4867 18.9336 65.1116 19.0525C57.0386 19.7469 50.2898 23.213 45.0521 29.3535C41.4058 33.6273 39.5391 38.9285 39.3477 45.5561C39.1528 52.3219 40.4362 59.3822 43.2726 67.1413L43.2873 67.1833L43.2386 67.2093C35.4171 71.2588 29.7942 74.99 25.0062 79.308C20.3393 83.5183 17.3943 87.5747 15.7393 92.0738C13.7978 97.349 14.1309 102.846 16.7293 108.415C17.6674 110.432 19.0214 112.116 20.7913 113.464C24.953 116.661 29.7331 118.283 34.998 118.283C36.0605 118.283 37.1558 118.215 38.2569 118.085C40.0352 117.873 41.6675 117.113 42.7243 116.51C50.8313 111.889 59.0436 107.141 66.9851 102.552L72.6669 99.2689C73.5515 98.7581 74.4079 98.4432 75.3061 98.3027C76.4094 102.847 78.548 106.629 81.8159 109.812C81.2813 110.474 80.5835 111.033 79.6717 111.537L55.8051 124.713C52.604 126.48 49.404 128.246 46.2075 130.023C42.0673 132.32 37.2283 133.535 32.2137 133.535L32.2103 133.536L32.2103 133.536L32.2103 133.536Z" stroke="#000000" stroke-opacity="0.000000" stroke-width="1" stroke-dasharray="0 0" fill-opacity="0" transform="matrix(1 0 0 1 22.5913 28.8701)"/>
	<path d="M18.0827 0.0173786C7.28327 1.06402 -0.739846 10.6073 0.054195 21.452C0.764415 31.1595 8.39334 38.9832 18.0884 39.9143C18.4361 39.9495 18.9504 39.843 19.1475 39.6051C21.5851 36.6657 23.8052 33.5688 25.0218 29.9056C25.4398 28.6471 25.5417 27.2731 25.6969 25.941C25.7807 25.2217 25.4171 24.8819 24.588 24.9193C21.8932 25.0382 19.1962 25.0824 16.4992 25.1266C15.994 25.1345 15.4208 25.352 15.0776 24.6429C12.8993 20.1448 12.2242 15.4803 13.5065 10.6107C14.5486 6.6529 16.5343 3.19582 19.4533 0.0128483C18.8632 0.0128483 18.4701 -0.0188707 18.0827 0.0173786L18.0827 0.0173786L18.0827 0.0173786Z" fill="#DBB4DB" fill-opacity="1.000000" stroke-opacity="0" transform="matrix(1 0 0 1 100.933 101.799)"/>
	<path d="M18.0827 0.0173786C7.28327 1.06402 -0.739846 10.6073 0.054195 21.452C0.764415 31.1595 8.39334 38.9832 18.0884 39.9143C18.4361 39.9495 18.9504 39.843 19.1475 39.6051C21.5851 36.6657 23.8052 33.5688 25.0218 29.9056C25.4398 28.6471 25.5417 27.2731 25.6969 25.941C25.7807 25.2217 25.4171 24.8819 24.588 24.9193C21.8932 25.0382 19.1962 25.0824 16.4992 25.1266C15.994 25.1345 15.4208 25.352 15.0776 24.6429C12.8993 20.1448 12.2242 15.4803 13.5065 10.6107C14.5486 6.6529 16.5343 3.19582 19.4533 0.0128483C18.8632 0.0128483 18.4701 -0.0188707 18.0827 0.0173786L18.0827 0.0173786L18.0827 0.0173786Z" stroke="#000000" stroke-opacity="0.000000" stroke-width="1" stroke-dasharray="0 0" fill-opacity="0" transform="matrix(1 0 0 1 100.933 101.799)"/>
	<path d="M7.15316 39.6528C7.31174 39.6448 7.58812 39.6584 7.85319 39.6165C12.8349 38.8293 17.0011 36.5525 20.2668 32.6944C25.7107 26.2605 26.5829 17.1398 22.3283 9.82575C19.1409 4.33994 14.346 1.03691 8.04803 0.0151843C7.71048 -0.0391862 7.22227 0.0536954 6.9878 0.273446C3.88412 3.15624 1.6787 6.61333 0.634325 10.7387C0.310364 12.0176 0.217482 13.3542 0 14.7882L8.08315 14.7882C10.3486 14.7882 10.3328 14.795 11.2378 16.9336C13.5633 22.4353 13.0434 27.8678 10.6896 33.1758C9.70182 35.3994 8.35953 37.4666 7.15319 39.6528L7.15316 39.6528L7.15316 39.6528Z" fill="#DBB4DB" fill-opacity="1.000000" stroke-opacity="0" transform="matrix(1 0 0 1 116.049 101.994)"/>
	<path d="M7.15316 39.6528C7.31174 39.6448 7.58812 39.6584 7.85319 39.6165C12.8349 38.8293 17.0011 36.5525 20.2668 32.6944C25.7107 26.2605 26.5829 17.1398 22.3283 9.82575C19.1409 4.33994 14.346 1.03691 8.04803 0.0151843C7.71048 -0.0391862 7.22227 0.0536954 6.9878 0.273446C3.88412 3.15624 1.6787 6.61333 0.634325 10.7387C0.310364 12.0176 0.217482 13.3542 0 14.7882L8.08315 14.7882C10.3486 14.7882 10.3328 14.795 11.2378 16.9336C13.5633 22.4353 13.0434 27.8678 10.6896 33.1758C9.70182 35.3994 8.35953 37.4666 7.15319 39.6528L7.15316 39.6528L7.15316 39.6528Z" stroke="#000000" stroke-opacity="0.000000" stroke-width="1" stroke-dasharray="0 0" fill-opacity="0" transform="matrix(1 0 0 1 116.049 101.994)"/>
	<path d="M0 0.00502014L249.068 0.00502014L249.068 105L0 105L0 0.00502014Z" stroke-opacity="0" fill-opacity="0.000000" fill="#000000" transform="matrix(1 0 0 1 275.462 63.9174)"/>
	<path d="M24.5114 82.4439L5.88435 28.1862L7.17739 27.7423L6.83793 29.0666L-0.939896 27.073L-0.939896 19.8409L26.2957 19.366L26.2957 27.1252L17.2593 28.9956L16.9822 27.6569L18.2832 27.2367L32.0185 69.7671L30.7175 70.1872L29.4249 69.7422L44.036 27.2974L45.3286 27.7423L45.0443 29.0796L35.8229 27.1191L35.8229 19.8418L62.1827 19.3651L62.1827 27.0763L54.3154 29.0677L53.98 27.7423L55.2671 28.203L35.5253 83.3671L24.8283 83.3671L24.5114 82.4439ZM27.0975 81.5561L25.8044 82L25.8044 80.6329L34.5626 80.6329L34.5626 82L33.2754 81.5394L52.9383 26.5958L60.4801 24.6868L60.8156 26.0121L59.4485 26.0121L59.4485 20.7572L60.8156 20.7572L60.8403 22.1241L37.2147 22.5513L37.19 21.1844L38.5571 21.1844L38.5571 26.0121L37.19 26.0121L37.4743 24.6748L47.1242 26.7264L30.6762 74.5076L15.213 26.627L24.6515 24.6733L24.9286 26.0121L23.5615 26.0121L23.5615 20.7572L24.9286 20.7572L24.9525 22.1241L0.45106 22.5513L0.427226 21.1844L1.79435 21.1844L1.79435 26.0121L0.427226 26.0121L0.766684 24.6878L8.23104 26.6011L27.0975 81.5561ZM25.8044 82L7.17739 27.7423L0.427226 26.0121L0.427226 21.1844L24.9286 20.7572L24.9286 26.0121L16.9822 27.6569L30.7175 70.1872L45.3286 27.7423L37.19 26.0121L37.19 21.1844L60.8156 20.7572L60.8156 26.0121L53.98 27.7423L34.5626 82L25.8044 82ZM76.1065 13.708Q83.1771 13.708 83.1771 21.633Q83.1771 25.0191 80.6996 26.9248Q78.4073 28.6822 75.7647 28.6822Q72.7942 28.6822 70.8928 26.6178Q69.0573 24.5962 69.0573 21.1844Q69.0573 17.7291 71.0876 15.7255Q73.105 13.708 76.1065 13.708ZM76.1065 16.4422Q74.2376 16.4422 73.0081 17.6716Q71.7915 18.8722 71.7915 21.1844Q71.7915 23.5402 72.9039 24.7655Q73.9931 25.948 75.7647 25.948Q77.4798 25.948 79.0325 24.7576Q80.4429 23.6727 80.4429 21.633Q80.4429 16.4422 76.1065 16.4422ZM82.3013 35.6247L82.3013 74.9935L80.9342 74.9935L81.369 73.6974L88.8592 76.2104L88.8592 83.3671L63.3752 83.3671L63.3752 76.1726L71.788 73.6826L72.176 74.9935L70.8089 74.9935L70.8089 42.6312L72.176 42.6312L71.8625 43.9618L63.3752 41.962L63.3752 34.7435L82.3013 34.2191L82.3013 35.6247ZM79.567 35.6247L80.9342 35.6247L80.972 36.9912L64.7802 37.4398L64.7423 36.0732L66.1094 36.0732L66.1094 40.8795L64.7423 40.8795L65.0559 39.5489L73.5432 41.5487L73.5432 76.0146L65.1303 78.5046L64.7423 77.1937L66.1094 77.1937L66.1094 82L64.7423 82L64.7423 80.6329L87.4921 80.6329L87.4921 82L86.125 82L86.125 77.1937L87.4921 77.1937L87.0572 78.4898L79.567 75.9768L79.567 35.6247ZM76.1065 15.0751Q81.81 15.0751 81.81 21.633Q81.81 24.3459 79.8661 25.8412Q77.9436 27.3151 75.7647 27.3151Q73.3936 27.3151 71.8983 25.6917Q70.4244 24.0682 70.4244 21.1844Q70.4244 18.3007 72.0479 16.6986Q73.6713 15.0751 76.1065 15.0751ZM80.9342 35.6247L80.9342 74.9935L87.4921 77.1937L87.4921 82L64.7423 82L64.7423 77.1937L72.176 74.9935L72.176 42.6312L64.7423 40.8795L64.7423 36.0732L80.9342 35.6247ZM92.6825 59.5066Q92.6825 53.6783 94.3608 48.8669Q96.0795 44.0048 99.2385 40.5731Q102.426 37.1121 106.752 35.2453Q111.093 33.3817 116.265 33.3817Q126.692 33.3817 132.526 40.066Q138.289 46.6684 138.289 58.2035Q138.289 63.8621 136.631 68.589Q134.964 73.341 131.954 76.827Q128.913 80.3251 124.559 82.2853Q120.234 84.2429 114.962 84.2429Q104.387 84.2429 98.5124 77.8635Q92.6824 71.5098 92.6825 59.5066ZM95.4167 59.5066Q95.4167 70.4454 100.524 76.0113Q105.586 81.5087 114.962 81.5087Q119.644 81.5087 123.437 79.7922Q127.243 78.0783 129.884 75.0398Q132.556 71.9465 134.051 67.6841Q135.555 63.3965 135.555 58.2035Q135.555 47.6938 130.466 41.864Q125.449 36.116 116.265 36.116Q111.655 36.116 107.835 37.7557Q104.044 39.3921 101.25 42.4249Q98.4707 45.4443 96.9425 49.7675Q95.4167 54.1415 95.4167 59.5066ZM115.924 43.1225Q104.602 43.1225 104.602 58.823Q104.602 74.5022 115.475 74.5022Q121.133 74.5022 123.654 70.7494Q126.369 66.7153 126.369 58.3744Q126.369 43.1225 115.924 43.1225ZM115.924 40.3882Q129.103 40.3882 129.103 58.3744Q129.103 67.5498 125.923 72.2738Q122.591 77.2364 115.475 77.2364Q101.868 77.2364 101.868 58.823Q101.868 40.3882 115.924 40.3882ZM94.0496 59.5066Q94.0496 53.9099 95.6517 49.3172Q97.2751 44.7246 100.244 41.499Q103.235 38.2521 107.294 36.5005Q111.374 34.7488 116.265 34.7488Q126.07 34.7488 131.496 40.965Q136.922 47.1811 136.922 58.2035Q136.922 63.6293 135.341 68.1365Q133.76 72.6438 130.919 75.9334Q128.078 79.2017 123.998 81.0387Q119.939 82.8758 114.962 82.8758Q104.987 82.8758 99.5181 76.9374Q94.0496 70.9776 94.0496 59.5066ZM115.924 41.7553Q103.235 41.7553 103.235 58.823Q103.235 75.8693 115.475 75.8693Q121.862 75.8693 124.788 71.5116Q127.736 67.1325 127.736 58.3744Q127.736 41.7553 115.924 41.7553ZM160.321 14.6265L160.321 74.9935L158.954 74.9935L159.287 73.6676L169.079 76.1276L169.079 83.3671L141.224 83.3671L141.224 76.1718L149.659 73.6823L150.046 74.9935L148.679 74.9935L148.679 21.633L150.046 21.633L149.734 22.9639L141.224 20.9645L141.224 13.7449L160.321 13.2214L160.321 14.6265ZM157.587 14.6265L158.954 14.6265L158.991 15.9931L142.629 16.4417L142.591 15.0751L143.958 15.0751L143.958 19.8814L142.591 19.8814L142.904 18.5505L151.413 20.5499L151.413 76.0154L142.978 78.5049L142.591 77.1937L143.958 77.1937L143.958 82L142.591 82L142.591 80.6329L167.712 80.6329L167.712 82L166.345 82L166.345 77.1937L167.712 77.1937L167.379 78.5196L157.587 76.0597L157.587 14.6265ZM158.954 14.6265L158.954 74.9935L167.712 77.1937L167.712 82L142.591 82L142.591 77.1937L150.046 74.9935L150.046 21.633L142.591 19.8814L142.591 15.0751L158.954 14.6265ZM211.025 61.3223L180.841 61.4931L180.834 60.126L182.201 60.126Q182.201 66.8211 185.359 70.7392Q188.407 74.5022 193.522 74.5022Q195.324 74.5022 197.128 74.1815Q198.965 73.8549 200.591 73.3468Q202.215 72.8392 203.523 72.2356Q204.842 71.616 205.727 71.046L208.605 69.1856L213.11 75.8959L212.126 76.6813Q209.064 79.1265 206.461 80.5506Q203.868 81.959 200.372 83.0874Q196.792 84.2429 192.646 84.2429Q181.698 84.2429 175.949 77.5043Q170.281 70.8621 170.281 59.5066Q170.281 53.853 171.914 49.0876Q173.583 44.2831 176.598 40.8157Q179.651 37.3071 183.843 35.3474Q188.049 33.3817 193.074 33.3817Q212.833 33.3817 212.833 55.3198L212.833 55.3858L212.259 61.3153L211.025 61.3223ZM211.009 58.5881L211.017 59.9552L209.656 59.8235L210.105 55.1881L211.466 55.3198L210.099 55.3198Q210.099 36.116 193.074 36.116Q188.656 36.116 185.001 37.8244Q181.333 39.5389 178.661 42.6095Q175.993 45.6787 174.501 49.9741Q173.015 54.3086 173.015 59.5066Q173.015 69.8541 178.029 75.7296Q182.96 81.5087 192.646 81.5087Q196.362 81.5087 199.532 80.4854Q202.786 79.435 205.149 78.1518Q207.544 76.8417 210.42 74.5447L211.273 75.613L210.138 76.375L207.084 71.8251L208.219 71.063L208.961 72.2112L207.208 73.3443Q206.17 74.0133 204.669 74.7181Q203.2 75.3961 201.406 75.9566Q199.615 76.5166 197.606 76.8736Q195.565 77.2364 193.522 77.2364Q187.103 77.2364 183.23 72.455Q179.466 67.7858 179.466 60.126L179.466 58.7666L211.009 58.5881ZM181.175 52.201L202.173 52.201L202.173 53.5681L200.806 53.5681Q200.806 48.6539 198.763 45.6935Q196.9 42.9516 192.561 42.9516Q188.181 42.9516 185.62 45.8625Q182.948 48.8806 182.538 53.6844L181.175 53.5681L181.175 52.201ZM181.175 54.9353L179.687 54.9353L179.813 53.4519Q180.3 47.7459 183.567 44.0565Q186.944 40.2173 192.561 40.2173Q198.347 40.2173 201.013 44.1401Q203.541 47.8018 203.541 53.5681L203.541 54.9353L181.175 54.9353ZM211.017 59.9552L180.834 60.126Q180.834 67.3034 184.294 71.5971Q187.755 75.8693 193.522 75.8693Q195.445 75.8693 197.367 75.5275Q199.29 75.1858 200.999 74.6517Q202.708 74.1177 204.096 73.4768Q205.506 72.8147 206.467 72.1952L208.219 71.063L211.273 75.613Q208.304 77.9841 205.805 79.3512Q203.327 80.697 199.952 81.7864Q196.577 82.8758 192.646 82.8758Q182.329 82.8758 176.989 76.617Q171.648 70.3581 171.648 59.5066Q171.648 54.0808 173.208 49.5308Q174.788 44.9809 177.629 41.7126Q180.492 38.423 184.422 36.5859Q188.353 34.7488 193.074 34.7488Q211.466 34.7488 211.466 55.3198L211.017 59.9552ZM181.175 53.5681L202.173 53.5681Q202.173 48.2278 199.888 44.9168Q197.624 41.5844 192.561 41.5844Q187.562 41.5844 184.593 44.9595Q181.624 48.3133 181.175 53.5681ZM235.125 23.2992L235.125 36.0732L233.758 36.0732L233.758 34.7061L247.814 34.7061L247.814 43.9983L233.758 43.9983L233.758 42.6312L235.125 42.6312L235.125 70.7212Q235.125 74.6731 238.137 74.6731Q240.589 74.6731 244.3 72.6597L245.531 71.9917L249.069 78.9097L248.132 79.5984Q241.811 84.2429 235.083 84.2429Q230.034 84.2429 226.832 80.8941Q223.654 77.5713 223.654 70.1872L223.654 42.6312L225.021 42.6312L225.021 43.9983L214.896 43.9983L214.896 35.7118L224.885 34.7129L225.021 36.0732L223.654 36.0732L223.654 23.9306L235.125 21.6308L235.125 23.2992ZM232.391 23.2992L233.758 23.2992L234.027 24.6396L225.29 26.3913L225.021 25.0508L226.389 25.0508L226.389 37.3105L216.399 38.3094L216.263 36.9491L217.63 36.9491L217.63 42.6312L216.263 42.6312L216.263 41.264L226.389 41.264L226.389 70.1872Q226.389 76.4744 228.808 79.0045Q231.202 81.5087 235.083 81.5087Q240.915 81.5087 246.513 77.3951L247.323 78.4967L246.105 79.1193L243.734 74.4839L244.952 73.8614L245.603 75.063Q241.283 77.4073 238.137 77.4073Q232.391 77.4073 232.391 70.7212L232.391 41.264L246.447 41.264L246.447 42.6312L245.08 42.6312L245.08 36.0732L246.447 36.0732L246.447 37.4404L232.391 37.4404L232.391 23.2992ZM233.758 23.2992L233.758 36.0732L246.447 36.0732L246.447 42.6312L233.758 42.6312L233.758 70.7212Q233.758 76.0402 238.137 76.0402Q240.936 76.0402 244.952 73.8614L247.323 78.4967Q241.363 82.8758 235.083 82.8758Q230.618 82.8758 227.82 79.9493Q225.021 77.0228 225.021 70.1872L225.021 42.6312L216.263 42.6312L216.263 36.9491L225.021 36.0732L225.021 25.0508L233.758 23.2992Z" fill="#9170A1" fill-opacity="1.000000" transform="matrix(1 0 0 1 275.462 63.9174)"/>
</svg>
