<svg xmlns="http://www.w3.org/2000/svg" xmlns:xlink="http://www.w3.org/1999/xlink" width="215.060181" height="215.060181" viewBox="0 0 215.060181 215.06">
	<path d="M153.776 111.207C171.101 105.647 187.159 84.2375 174.359 59.5179C160.293 32.3417 146.2 37.6684 135.055 41.2367C133.348 41.7797 162.103 29.6008 122.462 46.1754C123.031 44.081 125.876 44.7533 122.462 46.1754C123.522 43.8741 118.403 47.0804 118.868 44.4947C121.816 27.5581 108.344 3.53658 90.5534 0.537119C66.6865 -3.47078 54.0936 15.7154 51.1199 32.652C50.1373 38.3665 54.0419 45.6324 56.1105 50.6746C55.2572 51.2435 54.4556 51.8382 53.6282 52.4588C52.8524 51.8382 52.0508 51.2435 51.1975 50.7005C36.3033 40.9781 15.953 44.5981 5.71323 58.768C-4.47484 72.9379 -0.673707 92.2792 14.2205 102.002C21.047 106.475 19.1335 109.138 26.7617 108.233C27.072 109.087 28.8045 113.405 29.1665 114.232C20.9436 117.671 20.6592 118.421 17.6338 127.161C11.9967 143.477 23.3484 162.353 40.5181 167.705C57.6879 173.058 76.1764 164.189 81.8134 147.873C82.6926 145.313 81.6324 150.432 81.8134 147.873C82.5375 147.898 84.4768 159.095 83.7528 159.095C81.1152 159.095 88.1486 172.282 90.812 172.282C102.5 181.591 104.517 189.632 119.644 187.46C138.96 184.694 149.639 173.006 154.009 156.354C157.862 141.693 147.777 118.886 133.943 112.681C134.254 112.06 135.934 112.81 136.193 112.189C141.597 113.198 148.191 112.991 153.776 111.207L153.776 111.207Z" fill="#814C94" fill-opacity="1.000000" stroke-opacity="0" transform="matrix(1 0 0 1 29.8201 18.8813)"/>
	<path d="M153.776 111.207C171.101 105.647 187.159 84.2375 174.359 59.5179C160.293 32.3417 146.2 37.6684 135.055 41.2367C133.348 41.7797 162.103 29.6008 122.462 46.1754C123.031 44.081 125.876 44.7533 122.462 46.1754C123.522 43.8741 118.403 47.0804 118.868 44.4947C121.816 27.5581 108.344 3.53658 90.5534 0.537119C66.6865 -3.47078 54.0936 15.7154 51.1199 32.652C50.1373 38.3665 54.0419 45.6324 56.1105 50.6746C55.2572 51.2435 54.4556 51.8382 53.6282 52.4588C52.8524 51.8382 52.0508 51.2435 51.1975 50.7005C36.3033 40.9781 15.953 44.5981 5.71323 58.768C-4.47484 72.9379 -0.673707 92.2792 14.2205 102.002C21.047 106.475 19.1335 109.138 26.7617 108.233C27.072 109.087 28.8045 113.405 29.1665 114.232C20.9436 117.671 20.6592 118.421 17.6338 127.161C11.9967 143.477 23.3484 162.353 40.5181 167.705C57.6879 173.058 76.1764 164.189 81.8134 147.873C82.6926 145.313 81.6324 150.432 81.8134 147.873C82.5375 147.898 84.4768 159.095 83.7528 159.095C81.1152 159.095 88.1486 172.282 90.812 172.282C102.5 181.591 104.517 189.632 119.644 187.46C138.96 184.694 149.639 173.006 154.009 156.354C157.862 141.693 147.777 118.886 133.943 112.681C134.254 112.06 135.934 112.81 136.193 112.189C141.597 113.198 148.191 112.991 153.776 111.207L153.776 111.207Z" stroke="#000000" stroke-opacity="0.000000" stroke-width="1" stroke-dasharray="0 0" fill-opacity="0" transform="matrix(1 0 0 1 29.8201 18.8813)"/>
	<path d="M137.434 200.416C134.228 200.416 130.996 200.028 127.815 199.226C112.378 195.374 101.026 182.755 98.4921 167.473C98.2335 168.56 97.9491 169.646 97.5871 170.706C90.7864 191.392 68.4451 202.665 47.7587 195.865C37.7516 192.581 29.6063 185.574 24.8484 176.162C20.0906 166.749 19.289 156.07 22.5988 146.038C25.8569 136.16 32.942 127.938 42.225 123.231C33.304 123.878 24.4864 121.499 17.1169 116.457C-0.802746 104.149 -5.40548 79.5325 6.90295 61.5874C19.2114 43.6424 43.8024 39.0656 61.7479 51.3737C62.3167 51.7616 62.8598 52.1495 63.4028 52.589C63.5321 52.4856 63.6872 52.3822 63.8165 52.2787C61.6703 46.073 61.1014 39.4276 62.1616 32.9891C65.73 11.5275 86.1061 -3.03025 107.568 0.538077C117.963 2.27052 127.065 7.93329 133.194 16.4921C139.322 25.0509 141.753 35.4973 140.02 45.9178C139.581 48.5294 138.857 51.1669 137.822 53.7785C138.081 53.9853 138.314 54.1922 138.52 54.399L138.546 54.3473L138.908 54.6318C141.83 52.6666 145.088 51.0634 148.657 49.874C158.741 46.4608 169.576 47.1848 179.143 51.9426C188.685 56.6745 195.822 64.8454 199.235 74.9557C202.648 85.0659 201.898 95.8743 197.166 105.442C192.434 114.983 184.263 122.12 174.153 125.533C169.007 127.265 163.551 127.938 158.147 127.498C172.524 136.419 179.79 153.847 175.627 170.576C173.067 180.79 166.706 189.426 157.655 194.856C151.475 198.477 144.494 200.39 137.434 200.416L137.434 200.416L137.434 200.416ZM95.5443 158.708L98.4404 158.863C98.9317 158.889 99.423 158.941 99.9143 158.941L101.931 158.941L101.983 160.957C101.983 177.248 112.998 191.392 128.798 195.348C137.977 197.649 147.519 196.227 155.638 191.34C163.758 186.453 169.498 178.721 171.774 169.542C175.859 153.174 167.766 136.108 152.535 128.92L150.699 128.067L151.967 125.455C152.173 125.016 152.406 124.576 152.587 124.136L153.208 122.637L154.811 122.947C160.836 124.085 167.119 123.671 172.912 121.706C181.988 118.655 189.357 112.216 193.624 103.632C197.89 95.0469 198.537 85.2987 195.486 76.2227C192.434 67.1468 185.996 59.7774 177.411 55.5109C168.826 51.2445 159.077 50.598 150.001 53.6492C146.304 54.8904 142.968 56.5969 140.098 58.7172L138.882 59.6222L137.098 58.2518C136.762 57.9932 136.4 57.7088 136.09 57.4244L136.064 57.4502C135.986 57.3985 135.624 57.1141 134.202 56.0022L132.961 55.0455L133.581 53.6233C134.771 50.8566 135.624 48.064 136.09 45.2972C137.641 35.9627 135.469 26.5765 129.961 18.871C124.454 11.1655 116.282 6.07156 106.922 4.52012C87.6317 1.26208 69.3501 14.3459 66.1178 33.6356C65.0835 39.8672 65.7817 46.3315 68.0831 52.2787L68.6519 53.7526L67.359 54.6576C66.4281 55.3041 65.5231 56.0022 64.6181 56.7262L63.351 57.7347L62.1099 56.7004C61.2824 56.0022 60.4032 55.3299 59.4982 54.7093C51.6891 49.3569 42.2509 47.3658 32.9678 49.0983C23.659 50.8307 15.5912 56.0798 10.2386 63.8887C-0.854469 79.972 3.28282 102.08 19.3924 113.147C26.4775 118.008 35.1141 120.103 43.7248 119.068L45.328 118.862L45.8451 120.387C46.2072 121.447 46.5433 122.404 46.9312 123.335L47.6811 125.145L45.871 125.921C36.6138 129.98 29.5287 137.763 26.374 147.279C23.4262 156.277 24.1503 165.87 28.4168 174.326C32.6834 182.781 39.9754 189.064 48.974 192.012C67.54 198.115 87.6059 187.978 93.7342 169.413C94.6393 166.646 95.1823 163.776 95.3892 160.647L95.5443 158.708L95.5443 158.708L95.5443 158.708Z" fill="#5D416B" fill-opacity="1.000000" stroke-opacity="0" transform="matrix(1 0 0 1 10.6072 7.32214)"/>
	<path d="M137.434 200.416C134.228 200.416 130.996 200.028 127.815 199.226C112.378 195.374 101.026 182.755 98.4921 167.473C98.2335 168.56 97.9491 169.646 97.5871 170.706C90.7864 191.392 68.4451 202.665 47.7587 195.865C37.7516 192.581 29.6063 185.574 24.8484 176.162C20.0906 166.749 19.289 156.07 22.5988 146.038C25.8569 136.16 32.942 127.938 42.225 123.231C33.304 123.878 24.4864 121.499 17.1169 116.457C-0.802746 104.149 -5.40548 79.5325 6.90295 61.5874C19.2114 43.6424 43.8024 39.0656 61.7479 51.3737C62.3167 51.7616 62.8598 52.1495 63.4028 52.589C63.5321 52.4856 63.6872 52.3822 63.8165 52.2787C61.6703 46.073 61.1014 39.4276 62.1616 32.9891C65.73 11.5275 86.1061 -3.03025 107.568 0.538077C117.963 2.27052 127.065 7.93329 133.194 16.4921C139.322 25.0509 141.753 35.4973 140.02 45.9178C139.581 48.5294 138.857 51.1669 137.822 53.7785C138.081 53.9853 138.314 54.1922 138.52 54.399L138.546 54.3473L138.908 54.6318C141.83 52.6666 145.088 51.0634 148.657 49.874C158.741 46.4608 169.576 47.1848 179.143 51.9426C188.685 56.6745 195.822 64.8454 199.235 74.9557C202.648 85.0659 201.898 95.8743 197.166 105.442C192.434 114.983 184.263 122.12 174.153 125.533C169.007 127.265 163.551 127.938 158.147 127.498C172.524 136.419 179.79 153.847 175.627 170.576C173.067 180.79 166.706 189.426 157.655 194.856C151.475 198.477 144.494 200.39 137.434 200.416L137.434 200.416L137.434 200.416ZM95.5443 158.708L98.4404 158.863C98.9317 158.889 99.423 158.941 99.9143 158.941L101.931 158.941L101.983 160.957C101.983 177.248 112.998 191.392 128.798 195.348C137.977 197.649 147.519 196.227 155.638 191.34C163.758 186.453 169.498 178.721 171.774 169.542C175.859 153.174 167.766 136.108 152.535 128.92L150.699 128.067L151.967 125.455C152.173 125.016 152.406 124.576 152.587 124.136L153.208 122.637L154.811 122.947C160.836 124.085 167.119 123.671 172.912 121.706C181.988 118.655 189.357 112.216 193.624 103.632C197.89 95.0469 198.537 85.2987 195.486 76.2227C192.434 67.1468 185.996 59.7774 177.411 55.5109C168.826 51.2445 159.077 50.598 150.001 53.6492C146.304 54.8904 142.968 56.5969 140.098 58.7172L138.882 59.6222L137.098 58.2518C136.762 57.9932 136.4 57.7088 136.09 57.4244L136.064 57.4502C135.986 57.3985 135.624 57.1141 134.202 56.0022L132.961 55.0455L133.581 53.6233C134.771 50.8566 135.624 48.064 136.09 45.2972C137.641 35.9627 135.469 26.5765 129.961 18.871C124.454 11.1655 116.282 6.07156 106.922 4.52012C87.6317 1.26208 69.3501 14.3459 66.1178 33.6356C65.0835 39.8672 65.7817 46.3315 68.0831 52.2787L68.6519 53.7526L67.359 54.6576C66.4281 55.3041 65.5231 56.0022 64.6181 56.7262L63.351 57.7347L62.1099 56.7004C61.2824 56.0022 60.4032 55.3299 59.4982 54.7093C51.6891 49.3569 42.2509 47.3658 32.9678 49.0983C23.659 50.8307 15.5912 56.0798 10.2386 63.8887C-0.854469 79.972 3.28282 102.08 19.3924 113.147C26.4775 118.008 35.1141 120.103 43.7248 119.068L45.328 118.862L45.8451 120.387C46.2072 121.447 46.5433 122.404 46.9312 123.335L47.6811 125.145L45.871 125.921C36.6138 129.98 29.5287 137.763 26.374 147.279C23.4262 156.277 24.1503 165.87 28.4168 174.326C32.6834 182.781 39.9754 189.064 48.974 192.012C67.54 198.115 87.6059 187.978 93.7342 169.413C94.6393 166.646 95.1823 163.776 95.3892 160.647L95.5443 158.708L95.5443 158.708L95.5443 158.708Z" stroke="#000000" stroke-opacity="0.000000" stroke-width="1" stroke-dasharray="0 0" fill-opacity="0" transform="matrix(1 0 0 1 10.6072 7.32214)"/>
	<path d="M47.8927 69.9476C46.755 69.9476 45.6172 69.8183 44.4795 69.5339C39.4371 68.2669 35.6101 64.3883 34.369 59.5271C33.2054 63.0437 30.723 65.888 27.4132 67.5687C24.0775 69.2495 20.3022 69.5339 16.7596 68.3703C13.2171 67.2067 10.321 64.7244 8.64022 61.4147C6.95944 58.0791 6.675 54.3039 7.83862 50.7614C8.84708 47.6585 10.9416 45.0211 13.6825 43.3145C10.9674 43.2628 8.30406 42.4353 6.05441 40.8839C-0.280809 36.5398 -1.90987 27.8259 2.43429 21.465C6.77844 15.1299 15.4926 13.475 21.8537 17.8449C21.8795 17.8449 21.8795 17.8708 21.9054 17.8708C21.3107 15.8539 21.1814 13.7336 21.5175 11.6909C22.1381 8.01912 24.1292 4.78695 27.1804 2.61493C30.2058 0.442905 33.9035 -0.410389 37.5754 0.184334C41.2472 0.804914 44.4795 2.79593 46.6515 5.8471C48.8236 8.87242 49.6769 12.57 49.0822 16.2676C48.9529 17.1209 48.7202 17.9742 48.384 18.8275L48.4099 18.8534C49.3925 18.2069 50.4785 17.6898 51.668 17.2761C55.2623 16.0608 59.0634 16.3193 62.4508 18.0001C65.8382 19.6808 68.3464 22.5768 69.5617 26.1452C70.7771 29.7135 70.4926 33.5404 68.8377 36.9277C67.157 40.315 64.2608 42.8232 60.6924 44.0385C59.2444 44.5298 57.7188 44.7884 56.1931 44.7884L56.1414 44.7884C60.6149 48.0981 62.7869 53.8643 61.4165 59.4236C60.5114 63.0437 58.2618 66.0949 55.0554 68.0083C52.8575 69.2753 50.4009 69.9476 47.8927 69.9476L47.8927 69.9476ZM33.1019 54.8986L34.4724 54.9503C34.6275 54.9503 34.7568 54.9762 34.912 54.9762L35.9205 54.9762L35.9463 55.9846C35.9463 61.4922 39.6699 66.25 44.9966 67.5946C48.0996 68.3703 51.306 67.879 54.047 66.25C56.7879 64.5951 58.7273 61.9835 59.503 58.8806C60.8735 53.3471 58.1584 47.6068 53.0126 45.1762L52.0817 44.7366L52.5472 43.8316C52.7282 43.4955 52.8058 43.3145 52.8833 43.1335L53.1936 42.3836L53.9952 42.5387C56.038 42.9266 58.1584 42.7715 60.0977 42.125C63.1748 41.0907 65.6572 38.9187 67.0794 36.0227C68.5274 33.1266 68.7343 29.8428 67.7 26.7657C66.6657 23.6887 64.4936 21.2064 61.5975 19.7842C58.7014 18.3362 55.4174 18.1293 52.3403 19.1636C51.0733 19.6032 49.9614 20.1721 49.0046 20.8702L48.384 21.3098L45.9792 19.4222L46.2895 18.6982C46.7033 17.7673 46.9877 16.8106 47.1429 15.8798C47.66 12.7251 46.936 9.54469 45.0742 6.95895C43.2124 4.37321 40.4456 2.64077 37.2909 2.12362C30.8006 1.03761 24.6205 5.45923 23.5345 11.9494C23.1983 14.0439 23.4052 16.2159 24.2068 18.2328L24.4912 18.9568L23.8448 19.3964C23.5345 19.6291 23.1983 19.8618 22.9139 20.0945L22.2674 20.5858L21.6468 20.0687C21.3624 19.8359 21.0521 19.6032 20.7677 19.3964C15.3116 15.6729 7.8645 17.0692 4.14095 22.4993C0.417387 27.9293 1.81372 35.4021 7.24391 39.1256C9.6487 40.7546 12.5707 41.4786 15.4668 41.1166L16.2684 41.0132L16.5269 41.7889C16.6562 42.125 16.7597 42.4612 16.889 42.7973L17.251 43.7023L16.3459 44.0902C13.2171 45.4348 10.8382 48.0722 9.778 51.3044C8.76953 54.3297 9.02812 57.5878 10.4503 60.4321C11.8984 63.2764 14.3549 65.3967 17.4061 66.4051C20.4315 67.4136 23.6896 67.155 26.534 65.707C29.3784 64.259 31.4987 61.8025 32.5072 58.7772C32.8175 57.8722 32.9985 56.8637 33.0761 55.8294L33.102 54.8986L33.1019 54.8986L33.1019 54.8986Z" fill="#5D416B" fill-opacity="1.000000" stroke-opacity="0" transform="matrix(1 0 0 1 76.1008 72.8624)"/>
	<path d="M47.8927 69.9476C46.755 69.9476 45.6172 69.8183 44.4795 69.5339C39.4371 68.2669 35.6101 64.3883 34.369 59.5271C33.2054 63.0437 30.723 65.888 27.4132 67.5687C24.0775 69.2495 20.3022 69.5339 16.7596 68.3703C13.2171 67.2067 10.321 64.7244 8.64022 61.4147C6.95944 58.0791 6.675 54.3039 7.83862 50.7614C8.84708 47.6585 10.9416 45.0211 13.6825 43.3145C10.9674 43.2628 8.30406 42.4353 6.05441 40.8839C-0.280809 36.5398 -1.90987 27.8259 2.43429 21.465C6.77844 15.1299 15.4926 13.475 21.8537 17.8449C21.8795 17.8449 21.8795 17.8708 21.9054 17.8708C21.3107 15.8539 21.1814 13.7336 21.5175 11.6909C22.1381 8.01912 24.1292 4.78695 27.1804 2.61493C30.2058 0.442905 33.9035 -0.410389 37.5754 0.184334C41.2472 0.804914 44.4795 2.79593 46.6515 5.8471C48.8236 8.87242 49.6769 12.57 49.0822 16.2676C48.9529 17.1209 48.7202 17.9742 48.384 18.8275L48.4099 18.8534C49.3925 18.2069 50.4785 17.6898 51.668 17.2761C55.2623 16.0608 59.0634 16.3193 62.4508 18.0001C65.8382 19.6808 68.3464 22.5768 69.5617 26.1452C70.7771 29.7135 70.4926 33.5404 68.8377 36.9277C67.157 40.315 64.2608 42.8232 60.6924 44.0385C59.2444 44.5298 57.7188 44.7884 56.1931 44.7884L56.1414 44.7884C60.6149 48.0981 62.7869 53.8643 61.4165 59.4236C60.5114 63.0437 58.2618 66.0949 55.0554 68.0083C52.8575 69.2753 50.4009 69.9476 47.8927 69.9476L47.8927 69.9476ZM33.1019 54.8986L34.4724 54.9503C34.6275 54.9503 34.7568 54.9762 34.912 54.9762L35.9205 54.9762L35.9463 55.9846C35.9463 61.4922 39.6699 66.25 44.9966 67.5946C48.0996 68.3703 51.306 67.879 54.047 66.25C56.7879 64.5951 58.7273 61.9835 59.503 58.8806C60.8735 53.3471 58.1584 47.6068 53.0126 45.1762L52.0817 44.7366L52.5472 43.8316C52.7282 43.4955 52.8058 43.3145 52.8833 43.1335L53.1936 42.3836L53.9952 42.5387C56.038 42.9266 58.1584 42.7715 60.0977 42.125C63.1748 41.0907 65.6572 38.9187 67.0794 36.0227C68.5274 33.1266 68.7343 29.8428 67.7 26.7657C66.6657 23.6887 64.4936 21.2064 61.5975 19.7842C58.7014 18.3362 55.4174 18.1293 52.3403 19.1636C51.0733 19.6032 49.9614 20.1721 49.0046 20.8702L48.384 21.3098L45.9792 19.4222L46.2895 18.6982C46.7033 17.7673 46.9877 16.8106 47.1429 15.8798C47.66 12.7251 46.936 9.54469 45.0742 6.95895C43.2124 4.37321 40.4456 2.64077 37.2909 2.12362C30.8006 1.03761 24.6205 5.45923 23.5345 11.9494C23.1983 14.0439 23.4052 16.2159 24.2068 18.2328L24.4912 18.9568L23.8448 19.3964C23.5345 19.6291 23.1983 19.8618 22.9139 20.0945L22.2674 20.5858L21.6468 20.0687C21.3624 19.8359 21.0521 19.6032 20.7677 19.3964C15.3116 15.6729 7.8645 17.0692 4.14095 22.4993C0.417387 27.9293 1.81372 35.4021 7.24391 39.1256C9.6487 40.7546 12.5707 41.4786 15.4668 41.1166L16.2684 41.0132L16.5269 41.7889C16.6562 42.125 16.7597 42.4612 16.889 42.7973L17.251 43.7023L16.3459 44.0902C13.2171 45.4348 10.8382 48.0722 9.778 51.3044C8.76953 54.3297 9.02812 57.5878 10.4503 60.4321C11.8984 63.2764 14.3549 65.3967 17.4061 66.4051C20.4315 67.4136 23.6896 67.155 26.534 65.707C29.3784 64.259 31.4987 61.8025 32.5072 58.7772C32.8175 57.8722 32.9985 56.8637 33.0761 55.8294L33.102 54.8986L33.1019 54.8986L33.1019 54.8986Z" stroke="#000000" stroke-opacity="0.000000" stroke-width="1" stroke-dasharray="0 0" fill-opacity="0" transform="matrix(1 0 0 1 76.1008 72.8624)"/>
	<path d="M54.1378 38.6923C60.8351 35.7963 64.4035 28.608 62.2831 22.2988C60.1886 15.9895 53.2328 11.8265 46.9752 13.9468C45.7598 14.3605 43.7429 15.1621 42.7603 15.8861C41.907 15.2138 43.2257 17.5668 42.088 16.6618C42.4759 15.7827 42.7603 14.8518 42.9155 13.8692C44.0015 7.37903 39.6315 1.22497 33.1928 0.164815C26.7542 -0.921194 20.6775 3.47456 19.6174 9.96477C19.2553 12.1627 19.5398 14.283 20.2638 16.2223C19.9535 16.4291 19.6691 16.6618 19.3588 16.8946C19.0743 16.6618 18.7899 16.4291 18.4796 16.2223C13.1011 12.4988 5.75745 13.8951 2.05975 19.3252C-1.61209 24.7552 -0.241614 32.1504 5.111 35.8739C7.59338 37.5805 10.4636 38.2011 13.2304 37.8649C13.3597 38.1752 13.4631 38.5113 13.5924 38.8475C10.6188 40.1404 8.18811 42.6744 7.10207 46.0359C5.05929 52.2675 8.42083 59.0163 14.6268 61.059C20.8327 63.1017 24.5821 59.1456 28.8745 53.2242C29.4693 52.3968 29.6503 52.5778 29.702 51.5952L29.9606 51.5952L30.8656 55.7324C33.3221 61.5761 34.9253 62.0416 39.5798 63.774C45.7081 66.0236 52.5605 59.8437 54.1378 53.4569C55.5342 47.8459 52.7156 42.1831 47.725 39.8042C47.8285 39.5715 47.9578 39.3388 48.0612 39.1061C50.0523 39.4939 52.1985 39.5456 54.1378 38.6923L54.1378 38.6923L54.1378 38.6923Z" fill="#FFFFFF" fill-opacity="1.000000" stroke-opacity="0" transform="matrix(1 0 0 1 81.9056 77.7948)"/>
	<path d="M54.1378 38.6923C60.8351 35.7963 64.4035 28.608 62.2831 22.2988C60.1886 15.9895 53.2328 11.8265 46.9752 13.9468C45.7598 14.3605 43.7429 15.1621 42.7603 15.8861C41.907 15.2138 43.2257 17.5668 42.088 16.6618C42.4759 15.7827 42.7603 14.8518 42.9155 13.8692C44.0015 7.37903 39.6315 1.22497 33.1928 0.164815C26.7542 -0.921194 20.6775 3.47456 19.6174 9.96477C19.2553 12.1627 19.5398 14.283 20.2638 16.2223C19.9535 16.4291 19.6691 16.6618 19.3588 16.8946C19.0743 16.6618 18.7899 16.4291 18.4796 16.2223C13.1011 12.4988 5.75745 13.8951 2.05975 19.3252C-1.61209 24.7552 -0.241614 32.1504 5.111 35.8739C7.59338 37.5805 10.4636 38.2011 13.2304 37.8649C13.3597 38.1752 13.4631 38.5113 13.5924 38.8475C10.6188 40.1404 8.18811 42.6744 7.10207 46.0359C5.05929 52.2675 8.42083 59.0163 14.6268 61.059C20.8327 63.1017 24.5821 59.1456 28.8745 53.2242C29.4693 52.3968 29.6503 52.5778 29.702 51.5952L29.9606 51.5952L30.8656 55.7324C33.3221 61.5761 34.9253 62.0416 39.5798 63.774C45.7081 66.0236 52.5605 59.8437 54.1378 53.4569C55.5342 47.8459 52.7156 42.1831 47.725 39.8042C47.8285 39.5715 47.9578 39.3388 48.0612 39.1061C50.0523 39.4939 52.1985 39.5456 54.1378 38.6923L54.1378 38.6923L54.1378 38.6923Z" stroke="#000000" stroke-opacity="0.000000" stroke-width="1" stroke-dasharray="0 0" fill-opacity="0" transform="matrix(1 0 0 1 81.9056 77.7948)"/>
	<path d="M63.0936 0C63.2746 2.09445 63.4039 4.1889 63.4298 6.33506C63.7918 27.7967 56.655 47.6293 44.45 63.3765C62.5764 62.4198 76.8501 46.6726 76.5139 27.5899C76.3588 16.2902 71.1096 6.33508 63.0936 5.97286e-06L63.0936 0L63.0936 0ZM1.1946e-05 132.674C6.07665 135.7 13.0583 137.018 20.2986 136.088C39.6404 133.554 53.2934 115.841 50.7852 96.474C50.2422 92.3885 49.001 88.5616 47.2426 85.0709C38.2182 106.119 21.4363 123.34 0 132.674L1.1946e-05 132.674L1.1946e-05 132.674Z" fill="#814C94" fill-opacity="1.000000" stroke-opacity="0" transform="matrix(1 0 0 1 132.32 67.2288)"/>
	<path d="M63.0936 0C63.2746 2.09445 63.4039 4.1889 63.4298 6.33506C63.7918 27.7967 56.655 47.6293 44.45 63.3765C62.5764 62.4198 76.8501 46.6726 76.5139 27.5899C76.3588 16.2902 71.1096 6.33508 63.0936 5.97286e-06L63.0936 0L63.0936 0ZM1.1946e-05 132.674C6.07665 135.7 13.0583 137.018 20.2986 136.088C39.6404 133.554 53.2934 115.841 50.7852 96.474C50.2422 92.3885 49.001 88.5616 47.2426 85.0709C38.2182 106.119 21.4363 123.34 0 132.674L1.1946e-05 132.674L1.1946e-05 132.674Z" stroke="#000000" stroke-opacity="0.000000" stroke-width="1" stroke-dasharray="0 0" fill-opacity="0" transform="matrix(1 0 0 1 132.32 67.2288)"/>
</svg>
